<svg xmlns="http://www.w3.org/2000/svg" viewBox="0 0 500.89 114.98"><defs><style>.cls-1{fill:#fff;}.cls-2{fill:#f4da40;}</style></defs><title>star-cutter-glisten_2</title><g id="Layer_2" data-name="Layer 2"><g id="Layer_1-2" data-name="Layer 1"><path class="cls-1" d="M488.45,9.28h-476v99h476Zm-48,79.27L411.06,104l5.61-32.72L393,48.15,369.22,71.28,374.84,104,345.45,88.55,316.06,104l5.61-32.72L298,48.15,274.22,71.28,279.84,104,250.45,88.55,221.06,104l5.61-32.72L203,48.15,179.22,71.28,184.84,104,155.45,88.55,126.06,104l5.61-32.72L108,48.15,84.22,71.28,89.84,104,60.45,88.55,31.06,104l5.61-32.72L12.89,48.1l32.86-4.77,14.7-29.78L75.14,43.33,108,48.09l32.8-4.76,14.7-29.78,14.69,29.78L203,48.09l32.8-4.76,14.7-29.78,14.69,29.78L298,48.09l32.8-4.76,14.7-29.78,14.69,29.78L393,48.09l32.8-4.76,14.7-29.78,14.69,29.78L488,48.1,464.22,71.28,469.84,104Z"/><path class="cls-2" d="M60.45,13.56,75.14,43.33,108,48.11,84.22,71.28,89.84,104,60.45,88.56,31.06,104l5.61-32.73L12.89,48.11l32.86-4.78,14.7-29.77M60.45,0,55.07,10.9l-13.3,27L12,42.17,0,43.92,8.71,52.4l21.51,21L25.14,103l-2.05,12,10.76-5.66,26.6-14,26.59,14L97.8,115l-2-12L90.67,73.38l21.52-21,8.7-8.48-12-1.75L79.13,37.85,65.83,10.9,60.45,0Z"/><path class="cls-2" d="M155.45,13.56l14.69,29.77L203,48.11,179.22,71.28,184.84,104,155.45,88.56,126.06,104l5.61-32.73L107.89,48.11l32.86-4.78,14.7-29.77m0-13.56-5.38,10.9-13.3,27L107,42.17,95,43.92l8.71,8.48,21.51,21L120.14,103l-2,12,10.76-5.66,26.6-14,26.59,14L192.8,115l-2.05-12-5.08-29.61,21.52-21,8.7-8.48-12-1.75-29.73-4.32L160.83,10.9,155.45,0Z"/><path class="cls-2" d="M250.45,13.56l14.69,29.77L298,48.11,274.22,71.28,279.84,104,250.45,88.56,221.06,104l5.61-32.73L202.89,48.11l32.86-4.78,14.7-29.77m0-13.56-5.38,10.9-13.3,27L202,42.17l-12,1.75,8.71,8.48,21.51,21L215.14,103l-2,12,10.76-5.66,26.6-14,26.59,14L287.8,115l-2.05-12-5.08-29.61,21.52-21,8.7-8.48-12-1.75-29.73-4.32L255.83,10.9,250.45,0Z"/><path class="cls-2" d="M345.45,13.56l14.69,29.77L393,48.11,369.22,71.28,374.84,104,345.45,88.56,316.06,104l5.61-32.73L297.89,48.11l32.86-4.78,14.7-29.77m0-13.56-5.38,10.9-13.3,27L297,42.17l-12,1.75,8.71,8.48,21.51,21L310.14,103l-2.05,12,10.76-5.66,26.6-14,26.59,14L382.8,115l-2.05-12-5.08-29.61,21.52-21,8.7-8.48-12-1.75-29.73-4.32L350.83,10.9,345.45,0Z"/><path class="cls-2" d="M440.45,13.56l14.69,29.77L488,48.11,464.22,71.28,469.84,104,440.45,88.56,411.06,104l5.61-32.73L392.89,48.11l32.86-4.78,14.7-29.77m0-13.56-5.38,10.9-13.3,27L392,42.17l-12,1.75,8.71,8.48,21.51,21L405.14,103l-2.05,12,10.76-5.66,26.6-14,26.59,14L477.8,115l-2.05-12-5.08-29.61,21.52-21,8.7-8.48-12-1.75-29.73-4.32L445.83,10.9,440.45,0Z"/></g></g></svg>