<svg xmlns="http://www.w3.org/2000/svg" viewBox="0 0 210 210"><defs><style>.cls-1{isolation:isolate;}.cls-2{fill:#343579;}.cls-3{fill:#252525;opacity:0.26;mix-blend-mode:color-burn;}.cls-4{fill:#8cc4a5;}.cls-5{fill:#62af83;}.cls-6{fill:#77c19a;}.cls-7{fill:#633c3c;}.cls-8{fill:#5aa37b;}.cls-9{fill:#98d8b2;}.cls-10{fill:#fff;}.cls-11{fill:#f4da40;}</style></defs><title>Asset 3</title><g class="cls-1"><g id="Layer_2" data-name="Layer 2"><g id="Layer_1-2" data-name="Layer 1"><circle class="cls-2" cx="105" cy="105" r="105"/><polygon class="cls-3" points="167.36 154.38 164.97 56.85 154.38 56.23 143.57 51.52 143.57 51.46 143.45 51.47 143.44 51.46 143.44 51.47 49.65 55.48 45.14 150.19 142.67 169.04 143.26 168.69 143.26 168.69 167.36 154.38"/><polygon class="cls-4" points="164.86 151.88 162.47 54.35 151.88 53.73 152.91 143.55 164.86 151.88"/><polygon class="cls-5" points="140.17 166.54 164.86 151.88 152.91 143.55 140.17 166.54"/><polygon class="cls-6" points="47.15 52.98 42.64 147.69 140.17 166.54 141.07 48.96 47.15 52.98"/><path class="cls-7" d="M74.41,68.83a5,5,0,1,1-5-5A5,5,0,0,1,74.41,68.83Z"/><path class="cls-7" d="M122.65,68.83a5,5,0,1,1-5-5A5,5,0,0,1,122.65,68.83Z"/><polygon class="cls-8" points="140.94 48.96 140.17 166.54 152.91 143.55 151.88 53.73 140.94 48.96"/><polygon class="cls-9" points="140.17 166.54 140.76 166.19 153.03 144.05 164.53 152.07 164.86 151.88 152.91 143.55 140.17 166.54"/><path class="cls-10" d="M113.15,128.14a21.86,21.86,0,0,1-21.71,21.67,20.69,20.69,0,0,1-20.73-21.67c.41-12,10.13-21.67,21.71-21.67S113.28,116.17,113.15,128.14Z"/><path class="cls-11" d="M89.38,138.63a7.68,7.68,0,0,0-.11,1.35v.07a10.28,10.28,0,0,1-1-1.42Zm13.05-10.49-.18,10.49H96.53a6,6,0,0,1-2.76,2.46,17.34,17.34,0,0,1-2.21.81,9.14,9.14,0,0,0,4.57,1.21,9.66,9.66,0,0,0,9.57-9.54,9.49,9.49,0,0,0-1.78-5.72C103.42,127.93,102.92,128,102.43,128.14Z"/><path class="cls-11" d="M82.75,121.84l0-1.82-1.89,1A17.87,17.87,0,0,1,82.75,121.84Z"/><path class="cls-11" d="M95.59,113.16l-9.67,5.19h10A12,12,0,0,0,95.59,113.16Z"/><path class="cls-6" d="M89.71,142.1c.41.26,2.26-.2,4.06-1a6,6,0,0,0,2.76-2.46H89.38a7.68,7.68,0,0,0-.11,1.35C89.28,140.56,89.31,141.83,89.71,142.1Z"/><path class="cls-2" d="M107.41,122.36c-1.12.51-4,2.07-5.5,2.93v.6l0,2.4-.17,9.76H84.41a3.81,3.81,0,0,1-1.76,1.36,3.18,3.18,0,0,1-3.25-.53,3.1,3.1,0,0,1-.83-.93,3.17,3.17,0,0,1-.46-2.16,3.74,3.74,0,0,1,3.66-3.14,2.94,2.94,0,0,1,.67.12l.4-14.42H102l0,2.48a18.75,18.75,0,0,1,2.06-2,.51.51,0,0,1,.72,0,25.13,25.13,0,0,1,2.86,2.89C107.86,122.1,107.52,122.31,107.41,122.36Zm-1.06,1.88a22,22,0,0,0-3.88,1.37l0,2.53a20.33,20.33,0,0,1,4.15-.54.34.34,0,0,0,.34-.33c0-.9,0-1.66-.07-2.56C106.84,124.37,106.59,124.18,106.35,124.24Z"/><path class="cls-6" d="M79.58,133.38a3.26,3.26,0,0,1,2.19-.73,2.94,2.94,0,0,1,.67.12l.31-10.93c-2.76-1.41-5.44-1.91-5.69-1.09a7.41,7.41,0,0,0,.81,4.36c.23.47,1.69,2.83,2.67,3.38-.85.33-4.56,1.3-4.37,2.19a1.41,1.41,0,0,0,.54.69c.24.22.49.43.74.63A15.15,15.15,0,0,0,79,133.06Z"/><path class="cls-10" d="M90.85,121.44c0-.64-.38-.93-1-.93H88.74l-.07,2.87h.56l0-1h.48l.56,1h.63l-.62-1.09A1,1,0,0,0,90.85,121.44Zm-1,.42h-.58l0-.84h.54c.28,0,.47.15.46.42A.39.39,0,0,1,89.84,121.86Zm-2.56,1a1.2,1.2,0,0,0,.68-.16l0,.57a1.5,1.5,0,0,1-.68.13A1.39,1.39,0,0,1,85.79,122,1.58,1.58,0,0,1,88,120.58l0,.57a1.23,1.23,0,0,0-.67-.16.91.91,0,0,0-1,1A.86.86,0,0,0,87.28,122.9Zm7.22-2.39h1.72V121H95v.67h1v.51H95l0,1.18h-.55Zm4.42,0V121h-.79l-.05,2.36h-.56l0-2.36h-.8v-.51Zm-6.57,0-1.1,2.87h.57l.23-.64h1.1l.2.64h.57l-1-2.87Zm-.11,1.73.37-1h0l.33,1Zm-6.58,4.58a2.65,2.65,0,0,1,2.83-2.77,3.68,3.68,0,0,1,1.58.34l0,1.06a2.51,2.51,0,0,0-1.44-.4,1.74,1.74,0,0,0-1.89,1.77,1.59,1.59,0,0,0,1.74,1.76,1.51,1.51,0,0,0,.58-.09l0-1.9h1l-.06,2.64a4.25,4.25,0,0,1-1.68.35A2.51,2.51,0,0,1,85.66,126.82Zm5.58,2.65h1l.12-5.31h-1ZM97,124.16,97,127.72l-2.34-3.56h-1l-.11,5.31h1l.08-3.61L97,129.47h1l.1-5.31Zm-1.13,9.27h0c0,.1-.12.09-.08,0a17.64,17.64,0,0,1,1.24-2.93c.08-.15-.65-.48-.73-.32a15.8,15.8,0,0,0-1,2.42c-1.14,2.56-1.8,2.89-1.43,1.61a11,11,0,0,1,.7-1.9l0-.06c.09-.2-.65-.51-.73-.3a11.48,11.48,0,0,1-.79,1.69c-.44.73-.84,1.25-.54.18a9,9,0,0,1,.68-1.72c.09-.18-.65-.37-.74-.17s-.31.67-.52,1.15c-.88,2-1.63,3.15-1.13,1a11.19,11.19,0,0,1,1.3-3.35c.1-.15-.64-.5-.73-.31a20.18,20.18,0,0,0-1.08,2.77h0c-2,3.43-4.9,2.84-3.27-.27s3.65-2.5,2.39-.91c-.17.21-.08.25.25.14a1.09,1.09,0,0,0,.5-.34c.56-.79-.77-2.18-2.26-1.42s-3.32,3.83-1.27,5.26c1.45,1,2.79-.61,3.46-1.66a5.31,5.31,0,0,0-.11.74c-.1,1.46.94,1.54,1.74-.7v0c-.15,1.32.89,1.4,1.41,0,0-.07.08-.06,0,0h0a.24.24,0,0,1,0,.08c-.15.58-.1,1.1.23,1.18h.18a1,1,0,0,0,.64-.41,6,6,0,0,0,.76-1.3,11.84,11.84,0,0,0-.29,1.34c0,.43.71.72.72.52a2.51,2.51,0,0,1,0-.31c.53.39,1.31.92,2.14-1.39S97.11,131.16,95.9,133.43Zm1.11-.61a5,5,0,0,1-1.08,2.1c-.22.18-.49-.09.19-1.36S97.27,131.91,97,132.82Z"/><path class="cls-10" d="M92.37,100.93c-13.77,0-25-12.33-25-27.47a1.79,1.79,0,1,1,3.57,0c0,13.17,9.59,23.89,21.39,23.89,12.51,0,23.9-11.39,23.9-23.89a1.79,1.79,0,1,1,3.57,0C119.84,87.83,106.75,100.93,92.37,100.93Z"/></g></g></g></svg>