<svg xmlns="http://www.w3.org/2000/svg" viewBox="0 0 238.58 238.58"><defs><style>.cls-1{isolation:isolate;}.cls-2{fill:#2a2f60;}.cls-3{fill:#252525;opacity:0.25;mix-blend-mode:color-burn;}.cls-4{fill:#fff;}.cls-5{fill:#f5d93f;}.cls-6{fill:#ddbd3d;}.cls-7{fill:#494949;}.cls-8{fill:#c1c0c0;}.cls-9{fill:#73bf9a;}</style></defs><title>choose-plan</title><g class="cls-1"><g id="Layer_2" data-name="Layer 2"><g id="Layer_1-2" data-name="Layer 1"><circle class="cls-2" cx="119.29" cy="119.29" r="119.29" transform="translate(-24.28 207.87) rotate(-76.67)"/><path class="cls-3" d="M166.72,59.37H159.2V56a4.07,4.07,0,1,0-8.13,0v3.35H94.75V56a4.07,4.07,0,1,0-8.13,0v3.35H77.23A10.32,10.32,0,0,0,66.92,69.69v112A10.32,10.32,0,0,0,77.23,192h89.49A10.33,10.33,0,0,0,177,181.69v-112A10.32,10.32,0,0,0,166.72,59.37Zm-15.6,10.86a4,4,0,0,0,8,0,5.94,5.94,0,1,1-8,0Zm-64.45,0a4,4,0,0,0,8,0,5.94,5.94,0,1,1-8,0Z"/><path class="cls-4" d="M164.2,56.85H74.71A10.32,10.32,0,0,0,64.4,67.17v112a10.32,10.32,0,0,0,10.31,10.32H164.2a10.33,10.33,0,0,0,10.32-10.32v-112A10.32,10.32,0,0,0,164.2,56.85ZM88.17,78a5.93,5.93,0,1,1,5.93-5.93A5.93,5.93,0,0,1,88.17,78Zm64.44,0a5.93,5.93,0,1,1,5.94-5.93A5.93,5.93,0,0,1,152.61,78Z"/><path class="cls-5" d="M164.2,56.85H74.71A10.32,10.32,0,0,0,64.4,67.17V85.82H174.52V67.17A10.32,10.32,0,0,0,164.2,56.85ZM88.17,78a5.93,5.93,0,1,1,5.93-5.93A5.93,5.93,0,0,1,88.17,78Zm64.44,0a5.93,5.93,0,1,1,5.94-5.93A5.93,5.93,0,0,1,152.61,78Z"/><rect class="cls-6" x="64.4" y="85.2" width="110.13" height="10.23"/><path class="cls-6" d="M88.17,63.53a8.55,8.55,0,1,0,8.54,8.54A8.54,8.54,0,0,0,88.17,63.53Zm0,14.47a5.93,5.93,0,1,1,5.93-5.93A5.93,5.93,0,0,1,88.17,78Z"/><path class="cls-6" d="M152.62,63.53a8.55,8.55,0,1,0,8.54,8.54A8.54,8.54,0,0,0,152.62,63.53Zm0,14.47a5.93,5.93,0,1,1,5.94-5.93A5.93,5.93,0,0,1,152.61,78Z"/><path class="cls-7" d="M92.23,67.2a4.07,4.07,0,0,1-4.07,4.07h0A4.07,4.07,0,0,1,84.1,67.2V53.5a4.06,4.06,0,0,1,4.06-4.06h0a4.07,4.07,0,0,1,4.07,4.06Z"/><path class="cls-7" d="M156.68,67.2a4.07,4.07,0,0,1-4.07,4.07h0a4.07,4.07,0,0,1-4.06-4.07V53.5a4.06,4.06,0,0,1,4.06-4.06h0a4.07,4.07,0,0,1,4.07,4.06Z"/><rect class="cls-8" x="101.11" y="109.94" width="14.91" height="14.91"/><rect class="cls-8" x="122.91" y="109.94" width="14.91" height="14.91"/><rect class="cls-8" x="144.71" y="109.94" width="14.91" height="14.91"/><rect class="cls-8" x="79.31" y="134.05" width="14.91" height="14.91"/><rect class="cls-8" x="101.11" y="134.05" width="14.91" height="14.91"/><rect class="cls-9" x="122.91" y="134.05" width="14.91" height="14.91"/><rect class="cls-8" x="144.71" y="134.05" width="14.91" height="14.91"/><rect class="cls-8" x="79.31" y="158.16" width="14.91" height="14.91"/><rect class="cls-8" x="101.11" y="158.16" width="14.91" height="14.91"/><rect class="cls-8" x="122.91" y="158.16" width="14.91" height="14.91"/><rect class="cls-8" x="144.71" y="158.16" width="14.91" height="14.91"/></g></g></g></svg>