<svg xmlns="http://www.w3.org/2000/svg" viewBox="0 0 238.36 238.36"><defs><style>.cls-1{fill:#2a2f60;}.cls-2{fill:#231f20;opacity:0.1;}.cls-3{fill:#519422;}.cls-4{fill:#f6f5bf;}.cls-5{fill:#9bb93b;}.cls-12,.cls-6,.cls-7{fill:#fff;}.cls-6{opacity:0.5;}.cls-8{fill:#007ea9;}.cls-9{fill:#f2d74f;}.cls-10{fill:#73bf9a;}.cls-11{fill:#f4fff3;}.cls-12,.cls-19{opacity:0.3;}.cls-13{fill:#628f39;}.cls-14{fill:#4f7e36;}.cls-15{fill:#e6e6b0;}.cls-16{fill:#808e31;}.cls-17{fill:#42682f;}.cls-18{fill:#f5d93f;}</style></defs><title>drinks</title><g id="Layer_2" data-name="Layer 2"><g id="Layer_1-2" data-name="Layer 1"><circle class="cls-1" cx="119.18" cy="119.18" r="119.18"/><path class="cls-2" d="M199.32,159.79c0,1.25-10.9,2.26-24.34,2.26s-24.33-1-24.33-2.26,10.9-2.25,24.33-2.25S199.32,158.55,199.32,159.79Z"/><path class="cls-3" d="M134.76,82.72a14.71,14.71,0,0,1,29.42,0"/><path class="cls-4" d="M135.63,82.72a13.84,13.84,0,0,1,27.68,0"/><path class="cls-5" d="M150.35,82.61l8.13-7.8a11.19,11.19,0,0,1,2.13,3.13,11.38,11.38,0,0,1,1,3.67Z"/><path class="cls-5" d="M149.91,82l.23-11.27a11.25,11.25,0,0,1,7,2.62Z"/><path class="cls-5" d="M149.15,81.86l-7.8-8.13a11.3,11.3,0,0,1,6.8-3.1Z"/><path class="cls-5" d="M148.53,82.3l-11.26-.23a11,11,0,0,1,.71-3.72,11.24,11.24,0,0,1,1.91-3.28Z"/><path class="cls-3" d="M134.76,82.41a14.71,14.71,0,0,0,29.42,0"/><path class="cls-4" d="M135.63,82.41a13.84,13.84,0,0,0,27.68,0"/><path class="cls-5" d="M150.35,82.53l8.13,7.8a11.21,11.21,0,0,0,3.09-6.8Z"/><path class="cls-5" d="M149.91,83.15l.23,11.27a11.34,11.34,0,0,0,7-2.63Z"/><path class="cls-5" d="M149.15,83.27l-7.8,8.14a11.37,11.37,0,0,0,6.8,3.09Z"/><path class="cls-5" d="M148.53,82.83l-11.26.24a11,11,0,0,0,.71,3.72,11.19,11.19,0,0,0,1.91,3.27Z"/><rect class="cls-6" x="149.47" y="82.75" width="36.84" height="5.72"/><rect class="cls-7" x="168.68" y="75.37" width="4.01" height="63.78" transform="translate(305.13 257.46) rotate(-163.98)"/><polygon class="cls-7" points="180.92 73.19 177.56 76.06 181.41 77.17 180.92 73.19"/><polygon class="cls-8" points="161.6 131.63 164.91 134.6 164 137.78 160.69 134.81 161.6 131.63"/><polygon class="cls-8" points="163.42 125.29 166.74 128.26 165.82 131.45 162.5 128.48 163.42 125.29"/><polygon class="cls-8" points="165.24 118.96 168.56 121.92 167.64 125.11 164.32 122.14 165.24 118.96"/><polygon class="cls-8" points="167.06 112.62 170.37 115.59 169.46 118.77 166.14 115.81 167.06 112.62"/><polygon class="cls-8" points="168.88 106.28 172.19 109.25 171.28 112.44 167.96 109.47 168.88 106.28"/><polygon class="cls-8" points="170.7 99.95 174.01 102.91 173.1 106.1 169.78 103.13 170.7 99.95"/><polygon class="cls-8" points="172.52 93.61 175.83 96.58 174.92 99.76 171.6 96.8 172.52 93.61"/><polygon class="cls-9" points="174.34 87.27 177.65 90.24 176.74 93.43 173.42 90.46 174.34 87.27"/><polygon class="cls-9" points="176.16 80.94 179.47 83.91 178.56 87.09 175.24 84.12 176.16 80.94"/><polygon class="cls-9" points="177.56 76.06 181.29 77.57 180.38 80.75 177.06 77.79 177.56 76.06"/><rect class="cls-7" x="192.98" y="59.58" width="4.01" height="27.84" transform="translate(145.43 275.9) rotate(-96.9)"/><polygon class="cls-9" points="186.84 72.47 185.4 76.68 182.11 77.08 183.55 72.87 186.84 72.47"/><polygon class="cls-9" points="193.39 71.68 191.94 75.89 188.65 76.29 190.09 72.08 193.39 71.68"/><polygon class="cls-9" points="199.93 70.89 198.49 75.09 195.2 75.49 196.64 71.28 199.93 70.89"/><polygon class="cls-9" points="206.47 70.09 205.03 74.3 201.74 74.7 203.19 70.49 206.47 70.09"/><rect class="cls-10" x="151.7" y="88.47" width="32.38" height="63.86"/><path class="cls-11" d="M184,82.75v69.58H151.64V82.75h-2.17v75.6a1.44,1.44,0,0,0,1.45,1.44h34a1.44,1.44,0,0,0,1.44-1.44V82.75Z"/><rect class="cls-12" x="153.92" y="93.09" width="14.38" height="14.38" rx="1.19" transform="matrix(0.5, -0.87, 0.87, 0.5, -6.29, 189.67)"/><rect class="cls-12" x="166.47" y="89.93" width="14.38" height="14.38" rx="1.19" transform="translate(-19.67 50.08) rotate(-15.54)"/><path class="cls-13" d="M177,144.05c-6.43,6.91-16.44,8-16.44,8s.41-10.07,6.83-17,16.44-8,16.44-8S183.45,137.15,177,144.05Z"/><path class="cls-14" d="M183.86,127.08s-.41,10.07-6.83,17-16.44,8-16.44,8"/><path class="cls-3" d="M164.36,133.21a14.71,14.71,0,1,1,7.95-28.32"/><path class="cls-4" d="M164.59,132.38a13.84,13.84,0,0,1,7.49-26.65"/><path class="cls-5" d="M168.46,118.18l-5.31-9.94a11.25,11.25,0,0,1,7.38-1.14Z"/><path class="cls-5" d="M167.74,118.44,157,115.16a11.46,11.46,0,0,1,1.69-3.39,11.33,11.33,0,0,1,2.72-2.63Z"/><path class="cls-5" d="M167.42,119.13l-9.94,5.31a11.16,11.16,0,0,1-1.2-3.6,11.48,11.48,0,0,1,.06-3.79Z"/><path class="cls-5" d="M167.68,119.84l-3.28,10.79a11.48,11.48,0,0,1-3.39-1.7,11.33,11.33,0,0,1-2.63-2.72Z"/><path class="cls-13" d="M179.77,121.82c-2,7.77-9.06,12.67-9.06,12.67s-3.78-7.7-1.76-15.48S178,106.34,178,106.34,181.78,114.05,179.77,121.82Z"/><path class="cls-14" d="M178,106.34s3.77,7.71,1.76,15.48-9.06,12.67-9.06,12.67"/><path class="cls-13" d="M164.9,129c4.52,7.11,3.24,16,3.24,16s-8.61-2.62-13.13-9.72-3.24-16-3.24-16S160.38,121.9,164.9,129Z"/><path class="cls-14" d="M151.77,119.28s8.61,2.62,13.13,9.73,3.24,16,3.24,16"/><rect class="cls-12" x="154.65" y="82.75" width="7.46" height="77.04"/><path class="cls-2" d="M165.77,82.75h18.42a0,0,0,0,1,0,0v75.86a1.19,1.19,0,0,1-1.19,1.19H165.77a0,0,0,0,1,0,0v-77a0,0,0,0,1,0,0Z"/><path class="cls-2" d="M104.28,157.05c0,1.24-10.9,2.25-24.34,2.25s-24.33-1-24.33-2.25,10.89-2.26,24.33-2.26S104.28,155.8,104.28,157.05Z"/><polygon class="cls-6" points="73.74 115.04 105.02 78.62 42.47 78.62 73.74 115.04"/><polygon class="cls-15" points="73.74 110.94 99.73 80.68 47.76 80.68 73.74 110.94"/><rect class="cls-4" x="80.93" y="64.77" width="1.38" height="45.5" transform="translate(40.86 -25) rotate(23.09)"/><path class="cls-16" d="M90.74,78.63c1,2.41-.91,5.43-4.19,6.75s-6.73.44-7.7-2,.91-5.43,4.2-6.75S89.78,76.23,90.74,78.63Z"/><path class="cls-17" d="M90.08,78.9A1.58,1.58,0,1,1,88,78,1.59,1.59,0,0,1,90.08,78.9Z"/><path class="cls-16" d="M76.53,88.87c2.4-1,5.43.91,6.75,4.19s.44,6.73-2,7.7-5.42-.91-6.74-4.19S74.12,89.83,76.53,88.87Z"/><path class="cls-17" d="M76.8,89.54A1.58,1.58,0,0,1,78,92.47a1.58,1.58,0,1,1-1.18-2.93Z"/><path class="cls-11" d="M101.49,78.62,75.93,108.38a2.89,2.89,0,0,1-4.38,0L46,78.62H42.47L73.74,115,105,78.62Z"/><path class="cls-11" d="M92.09,157.05c0-3.69-13.49-9.31-13.49-9.31a6.49,6.49,0,0,1-2.81-5.35v-30.5h-4.1v30.5a6.49,6.49,0,0,1-2.81,5.35s-13.49,5.77-13.49,9.31Z"/><polygon class="cls-12" points="51.62 78.62 67.42 106.32 73.74 110.53 61.37 78.51 51.62 78.62"/><path class="cls-2" d="M78.6,147.74a6.49,6.49,0,0,1-2.81-5.35V112.66l29.23-34H73.74V115h0v42H92.09C92.09,153.36,78.6,147.74,78.6,147.74Z"/><path class="cls-2" d="M150.19,181.09c0,1.25-10.89,2.26-24.33,2.26s-24.33-1-24.33-2.26,10.89-2.25,24.33-2.25S150.19,179.85,150.19,181.09Z"/><path class="cls-6" d="M130.75,103.33c.31-6.72,8.84-14.75,8.84-14.75l-20,.22-20-.22s8.53,8,8.84,14.75-8.84,25-8.84,34.62c0,14,9.07,23.5,19.52,23.91l.23,0h.46l.24,0c10.44-.41,19.51-9.87,19.51-23.91C139.59,128.28,130.43,110.05,130.75,103.33Z"/><path class="cls-18" d="M135.65,121.29c2,6.07,3.94,12.25,3.94,16.66,0,14-9.07,23.5-19.51,23.91l-.24,0h-.46l-.23,0C108.7,161.45,99.63,152,99.63,138c0-4.39,1.89-10.56,3.93-16.61"/><path class="cls-18" d="M103.56,121.34c2.44-7.26,5.09-14.35,4.91-18a16.47,16.47,0,0,0-2.93-7.62l28.1.07a16.41,16.41,0,0,0-2.89,7.55c-.17,3.66,2.46,10.72,4.9,18"/><g class="cls-19"><path class="cls-7" d="M123.52,160.85C111,160.37,105,152.54,105,138c0-5.54,2.58-13.09,5.07-20.4,1.92-5.61,3.9-11.42,3.78-14.1-.22-4.65-6-12.76-8.12-14.81l5.9.07c1,.89,6.1,7,6.45,14.5.17,3.65-.93,9.36-3.19,16s-4.8,14.06-4.8,18.76c0,11.81,7.34,21,17.07,21.37Z"/></g><path class="cls-11" d="M130.75,103.33c.31-6.72,8.84-14.75,8.84-14.75l-4,0c-.46.46-7.63,7.81-7.88,14-.25,6.4,8.77,25.46,8.77,34.66,0,13.37-8.1,21.53-16.46,21.91l-.19,0h-.36l-.19,0c-8.36-.38-16.46-8.54-16.46-21.91,0-9.2,9-28.26,8.77-34.66-.25-6.19-7.42-13.54-7.88-14l-4,0s8.53,8,8.84,14.75-8.84,25-8.84,34.62c0,14,9.07,23.5,19.52,23.91l.23,0h.46l.24,0c10.44-.41,19.51-9.87,19.51-23.91C139.59,128.28,130.43,110.05,130.75,103.33Z"/><path class="cls-11" d="M137.91,181.09c0-3.67-13.46-9.27-13.46-9.27a6.5,6.5,0,0,1-2.8-5.34v-7.32h-4.08v7.32a6.5,6.5,0,0,1-2.8,5.34s-13.45,5.75-13.45,9.27Z"/><rect class="cls-12" x="106.14" y="124.86" width="12.72" height="12.72" rx="1.19" transform="translate(-57.39 163.03) rotate(-60)"/><rect class="cls-12" x="110.8" y="142.97" width="12.72" height="12.72" rx="1.19" transform="translate(-66.49 101.38) rotate(-37.25)"/><rect class="cls-12" x="121.54" y="131.02" width="12.72" height="12.72" rx="1.19" transform="translate(-30.65 237.83) rotate(-79.4)"/><path class="cls-2" d="M119.61,181.09h18.3c0-3.67-13.46-9.27-13.46-9.27a6.5,6.5,0,0,1-2.8-5.34v-4.76c9.77-1.24,17.94-10.44,17.94-23.77,0-9.67-9.16-27.9-8.84-34.62s8.84-14.75,8.84-14.75l-20,.22"/></g></g></svg>