<svg viewBox="0 0 210 210" xmlns="http://www.w3.org/2000/svg"><circle cx="105" cy="105" fill="#343579" r="105"/><path d="m117.18 140.47c0 1.27 11.12 2.3 24.84 2.3s24.83-1 24.83-2.3-11.12-2.3-24.83-2.3-24.84 1.03-24.84 2.3z" fill="#231f20" opacity=".1"/><path d="m183.07 61.8a15 15 0 1 0 -30 0" fill="#519422"/><path d="m182.19 61.8a14.13 14.13 0 0 0 -28.26 0" fill="#f6f5bf"/><path d="m167.16 61.68-8.3-8a11.44 11.44 0 0 0 -3.15 6.94z" fill="#9bb93b"/><path d="m167.62 61.05-.24-11.51a11.7 11.7 0 0 0 -3.8.73 11.53 11.53 0 0 0 -3.34 1.95z" fill="#9bb93b"/><path d="m168.38 60.92 8-8.31a11.72 11.72 0 0 0 -3.21-2.17 11.49 11.49 0 0 0 -3.74-1z" fill="#9bb93b"/><path d="m169 61.37 11.5-.24a11.48 11.48 0 0 0 -2.66-7.13z" fill="#9bb93b"/><path d="m183.07 61.48a15 15 0 1 1 -30 0" fill="#519422"/><path d="m182.19 61.48a14.13 14.13 0 0 1 -28.26 0" fill="#f6f5bf"/><path d="m167.16 61.6-8.3 8a11.44 11.44 0 0 1 -3.15-6.94z" fill="#9bb93b"/><path d="m167.62 62.23-.24 11.5a11.55 11.55 0 0 1 -7.14-2.67z" fill="#9bb93b"/><path d="m168.38 62.36 8 8.3a11.59 11.59 0 0 1 -6.95 3.16z" fill="#9bb93b"/><path d="m169 61.91 11.5.24a11.48 11.48 0 0 1 -2.68 7.14z" fill="#9bb93b"/><path d="m130.46 61.82h37.6v5.84h-37.6z" fill="#fff" opacity=".5" transform="matrix(-1 0 0 -1 298.51 129.49)"/><path d="m144.37 54.3h4.09v65.1h-4.09z" fill="#fff" transform="matrix(.96116542 -.27597288 .27597288 .96116542 -18.28 43.78)"/><path d="m135.96 52.06 3.43 2.94-3.93 1.13z" fill="#fff"/><path d="m155.68 111.72-3.39 3.03.94 3.25 3.38-3.03z" fill="#007ea9"/><path d="m153.82 105.25-3.38 3.03.93 3.25 3.38-3.03z" fill="#007ea9"/><path d="m151.96 98.78-3.38 3.03.93 3.26 3.39-3.03z" fill="#007ea9"/><path d="m150.11 92.32-3.39 3.03.94 3.25 3.38-3.03z" fill="#007ea9"/><path d="m148.25 85.85-3.38 3.03.93 3.25 3.38-3.03z" fill="#007ea9"/><path d="m146.39 79.38-3.38 3.03.93 3.25 3.38-3.03z" fill="#007ea9"/><path d="m144.53 72.91-3.38 3.03.93 3.25 3.39-3.03z" fill="#007ea9"/><path d="m142.68 66.44-3.39 3.03.94 3.25 3.38-3.03z" fill="#f2d74f"/><path d="m140.82 59.98-3.38 3.03.93 3.25 3.38-3.03z" fill="#f2d74f"/><path d="m139.39 55-3.81 1.54.93 3.25 3.39-3.03z" fill="#f2d74f"/><path d="m119.56 38.18h4.09v28.42h-4.09z" fill="#fff" transform="matrix(.12013684 -.99275734 .99275734 .12013684 54.99 166.82)"/><path d="m129.91 51.33 1.48 4.3 3.36.41-1.48-4.3z" fill="#f2d74f"/><path d="m123.23 50.52 1.48 4.3 3.35.41-1.47-4.3z" fill="#f2d74f"/><path d="m116.55 49.72 1.48 4.29 3.35.41-1.47-4.3z" fill="#f2d74f"/><path d="m109.87 48.91 1.47 4.29 3.36.41-1.47-4.3z" fill="#f2d74f"/><path d="m132.73 67.66h33.06v65.19h-33.06z" fill="#73bf9a" transform="matrix(-1 0 0 -1 298.51 200.51)"/><path d="m132.79 61.82v71h33.06v-71h2.21v77.18a1.47 1.47 0 0 1 -1.48 1.47h-34.65a1.47 1.47 0 0 1 -1.47-1.47v-77.18z" fill="#f4fff3"/><rect fill="#fff" height="14.68" opacity=".3" rx="1.21" transform="matrix(.8660254 -.5 .5 .8660254 -18.94 88.77)" width="14.68" x="148.84" y="72.38"/><rect fill="#fff" height="14.68" opacity=".3" rx="1.21" transform="matrix(.27 -.96 .96 .27 31.26 194.12)" width="14.68" x="136.02" y="69.15"/><path d="m139.93 124.4c6.56 7 16.78 8.2 16.78 8.2s-.41-10.27-7-17.32-16.78-8.2-16.78-8.2.44 10.27 7 17.32z" fill="#628f39"/><path d="m133 107.08s.41 10.27 7 17.32 16.78 8.2 16.78 8.2" fill="#4f7e36"/><path d="m152.86 113.34a15 15 0 0 0 -8.12-28.92" fill="#519422"/><path d="m152.62 112.48a14.13 14.13 0 0 0 -7.62-27.2" fill="#f6f5bf"/><path d="m148.68 98 5.42-10.15a11.67 11.67 0 0 0 -3.67-1.22 11.43 11.43 0 0 0 -3.87.06z" fill="#9bb93b"/><path d="m149.41 98.25 11-3.34a11.58 11.58 0 0 0 -1.73-3.46 11.46 11.46 0 0 0 -2.78-2.69z" fill="#9bb93b"/><path d="m149.74 99 10.15 5.42a11.67 11.67 0 0 0 1.22-3.67 11.43 11.43 0 0 0 -.06-3.87z" fill="#9bb93b"/><path d="m149.48 99.69 3.34 11a11.49 11.49 0 0 0 6.15-4.51z" fill="#9bb93b"/><path d="m137.14 101.71c2.06 7.93 9.24 12.93 9.24 12.93s3.85-7.86 1.79-15.8-9.25-12.93-9.25-12.93-3.84 7.86-1.78 15.8z" fill="#628f39"/><path d="m138.92 85.91s-3.84 7.86-1.78 15.8 9.24 12.93 9.24 12.93" fill="#4f7e36"/><path d="m152.31 109.05c-4.61 7.25-3.31 16.34-3.31 16.34s8.79-2.67 13.4-9.93 3.31-16.34 3.31-16.34-8.78 2.67-13.4 9.93z" fill="#628f39"/><path d="m165.71 99.12s-8.78 2.67-13.4 9.93-3.31 16.34-3.31 16.34" fill="#4f7e36"/><path d="m155.16 61.82h7.62v78.65h-7.62z" fill="#fff" opacity=".3" transform="matrix(-1 0 0 -1 317.93 202.29)"/><path d="m132.62 61.82h17.59a1.21 1.21 0 0 1 1.21 1.18v77.43a0 0 0 0 1 0 0h-18.8a0 0 0 0 1 0 0v-78.61a0 0 0 0 1 0 0z" fill="#231f20" opacity=".1" transform="matrix(-1 0 0 -1 284.03 202.29)"/><path d="m88.16 141.46c0 1.27-11.12 2.3-24.84 2.3s-24.84-1-24.84-2.3 11.12-2.3 24.84-2.3 24.84 1.03 24.84 2.3z" fill="#231f20" opacity=".1"/><path d="m68.31 62.08c.32-6.86 9-15.06 9-15.06l-20.4.22-20.36-.24s8.7 8.2 9 15.06-9 25.47-9 35.34c0 14.33 9.26 24 19.92 24.4h.24.47.24c10.66-.41 19.92-10.07 19.92-24.4 0-9.85-9.34-28.46-9.03-35.32z" fill="#fff" opacity=".5"/><path d="m73.31 80.41c2.09 6.19 4 12.51 4 17 0 14.33-9.26 24-19.92 24.4h-.24-.47-.24c-10.66-.41-19.92-10.07-19.92-24.4 0-4.49 1.93-10.78 4-17" fill="#f5d93f"/><path d="m40.56 80.46c2.49-7.4 5.19-14.64 5-18.38-.12-2.57-1.42-5.33-3-7.78l28.68.07a16.72 16.72 0 0 0 -3 7.71c-.17 3.73 2.51 10.94 5 18.33" fill="#f5d93f"/><path d="m60.94 120.8c-12.78-.5-18.94-8.49-18.94-23.38 0-5.66 2.63-13.37 5.18-20.82 1.95-5.74 4-11.67 3.85-14.4-.22-4.75-6.07-13-8.28-15.11l6 .06c1 .91 6.22 7.13 6.58 14.81.17 3.72-1 9.55-3.26 16.31s-4.9 14.35-4.9 19.15c0 12 7.49 21.42 17.43 21.81z" fill="#fff" opacity=".3"/><path d="m68.31 62.08c.32-6.86 9-15.06 9-15.06h-4.13c-.46.47-7.79 8-8 14.3-.25 6.52 9 26 9 35.37 0 13.65-8.27 22-16.8 22.37h-.19-.37-.2c-8.53-.39-16.8-8.72-16.8-22.37 0-9.39 9.21-28.85 9-35.37-.25-6.32-7.57-13.83-8-14.3h-4.12s8.7 8.2 9 15.06-9 25.47-9 35.34c0 14.33 9.26 24 19.92 24.4h.24.47.24c10.66-.41 19.92-10.07 19.92-24.4-.15-9.87-9.49-28.48-9.18-35.34z" fill="#f4fff3"/><path d="m75.62 141.46c0-3.76-13.73-9.47-13.73-9.47a6.6 6.6 0 0 1 -2.89-5.45v-7.47h-4.14v7.47a6.62 6.62 0 0 1 -2.86 5.46s-13.73 5.87-13.73 9.47z" fill="#f4fff3"/><rect fill="#fff" height="12.99" opacity=".3" rx="1.21" transform="matrix(.5 -.87 .87 .5 -53.57 88.3)" width="12.99" x="43.19" y="84.05"/><rect fill="#fff" height="12.99" opacity=".3" rx="1.21" transform="matrix(.796002 -.60529399 .60529399 .796002 -54.89 55.2)" width="12.99" x="47.95" y="102.54"/><rect fill="#fff" height="12.99" opacity=".3" rx="1.21" transform="matrix(.18395135 -.98293535 .98293535 .18395135 -41.8 143.32)" width="12.99" x="58.91" y="90.34"/><path d="m56.94 141.46h18.68c0-3.76-13.73-9.47-13.73-9.47a6.6 6.6 0 0 1 -2.89-5.45v-4.86c10-1.27 18.34-10.68 18.34-24.26 0-9.87-9.35-28.48-9-35.34s9-15.06 9-15.06l-20.4.22" fill="#231f20" opacity=".1"/><ellipse cx="75.44" cy="160.76" fill="#7a7a7a" opacity=".4" rx="11.74" ry="2.58"/><ellipse cx="75.44" cy="157.95" fill="#f4ac45" rx="11.33" ry="2.33"/><ellipse cx="75.44" cy="160.33" fill="#f4ac45" rx="11.33" ry="2.33"/><path d="m75.44 160c-6 0-11-1-11.31-2.19a.59.59 0 0 0 0 .13c0 1.29 5.07 2.34 11.33 2.34s11.33-1 11.33-2.34a.59.59 0 0 0 0-.13c-.39 1.19-5.32 2.19-11.35 2.19z" fill="#ffdbab"/><path d="m86.76 158c-.21 1.25-5.2 2.25-11.32 2.25s-11.33-1-11.33-2.34v2.38c0 1.28 5.07 2.33 11.33 2.33s11.33-1 11.33-2.33a.28.28 0 0 0 0-.09z" fill="#db9542"/><path d="m75.44 159.66c-6.48 0-10.8-1-10.69-1.71 0-1 4.21-2.11 10.69-2.11s10.69 1.16 10.69 2.16c-.42.59-4.21 1.66-10.69 1.66z" fill="none" stroke="#db9542" stroke-miterlimit="10" stroke-width="1.07"/><g fill="#7f7f7f"><path d="m64.34 160.49a.11.11 0 0 1 -.12-.11v-1.63a.11.11 0 0 1 .12-.11.11.11 0 0 1 .11.11v1.63a.11.11 0 0 1 -.11.11z" opacity=".4"/><path d="m65.81 161.35a.11.11 0 0 1 -.11-.11v-1.63a.11.11 0 0 1 .22 0v1.63a.11.11 0 0 1 -.11.11z" opacity=".4"/><path d="m67.28 161.66a.11.11 0 0 1 -.11-.12v-1.62a.11.11 0 0 1 .11-.12.12.12 0 0 1 .12.12v1.62a.12.12 0 0 1 -.12.12z" opacity=".4"/><path d="m68.76 162a.11.11 0 0 1 -.12-.11v-1.63a.11.11 0 0 1 .12-.11.11.11 0 0 1 .11.11v1.63a.11.11 0 0 1 -.11.11z" opacity=".4"/><path d="m70.23 162.19a.11.11 0 0 1 -.11-.11v-1.63a.11.11 0 1 1 .22 0v1.63a.11.11 0 0 1 -.11.11z" opacity=".4"/><path d="m71.7 162.29a.12.12 0 0 1 -.11-.12v-1.62a.11.11 0 1 1 .22 0v1.62a.12.12 0 0 1 -.11.12z" opacity=".4"/><path d="m73.17 162.39a.11.11 0 0 1 -.11-.11v-1.63a.11.11 0 0 1 .11-.11.11.11 0 0 1 .12.11v1.63a.11.11 0 0 1 -.12.11z" opacity=".4"/><path d="m74.65 162.39a.11.11 0 0 1 -.12-.11v-1.63a.11.11 0 0 1 .12-.11.11.11 0 0 1 .11.11v1.63a.11.11 0 0 1 -.11.11z" opacity=".4"/><path d="m76.12 162.38a.11.11 0 0 1 -.11-.12v-1.62a.11.11 0 1 1 .22 0v1.62a.11.11 0 0 1 -.11.12z" opacity=".4"/><path d="m77.59 162.36a.11.11 0 0 1 -.11-.11v-1.63a.11.11 0 0 1 .11-.11.11.11 0 0 1 .12.11v1.63a.11.11 0 0 1 -.12.11z" opacity=".4"/><path d="m79.07 162.22a.11.11 0 0 1 -.12-.11v-1.63a.11.11 0 0 1 .12-.11.11.11 0 0 1 .11.11v1.63a.11.11 0 0 1 -.11.11z" opacity=".4"/><path d="m80.54 162.07a.12.12 0 0 1 -.12-.11v-1.63a.12.12 0 0 1 .12-.11.11.11 0 0 1 .11.11v1.67a.11.11 0 0 1 -.11.07z" opacity=".4"/><path d="m82 161.89a.11.11 0 0 1 -.11-.12v-1.62a.11.11 0 1 1 .22 0v1.62a.11.11 0 0 1 -.11.12z" opacity=".4"/><path d="m83.48 161.6a.12.12 0 0 1 -.11-.12v-1.62a.11.11 0 0 1 .11-.12.12.12 0 0 1 .12.12v1.62a.12.12 0 0 1 -.12.12z" opacity=".4"/><path d="m85 161.26a.12.12 0 0 1 -.12-.12v-1.62a.12.12 0 0 1 .12-.12.12.12 0 0 1 .11.12v1.62a.11.11 0 0 1 -.11.12z" opacity=".4"/><path d="m86.43 160.57a.11.11 0 0 1 -.11-.12v-1.62a.11.11 0 1 1 .22 0v1.62a.11.11 0 0 1 -.11.12z" opacity=".4"/></g><path d="m78.9 158.79-.83-.26a14.67 14.67 0 0 1 -1.9.14l-.76-.36a13.19 13.19 0 0 0 1.88-.12c.52-.09.68-.2.33-.31a5.68 5.68 0 0 0 -1.72-.08 9.91 9.91 0 0 1 -3.22-.23c-.77-.23-.82-.51 0-.72l-.83-.25.89-.15.77.24a11.25 11.25 0 0 1 1.59-.12l.73.34a11.07 11.07 0 0 0 -1.6.12c-.58.09-.53.2-.28.28a7.24 7.24 0 0 0 1.83.05 9.22 9.22 0 0 1 3.14.26c.78.24.88.53 0 .75l.89.28z" fill="#db9542"/><ellipse cx="48.98" cy="156.85" fill="#7a7a7a" opacity=".4" rx="11.74" ry="2.58"/><ellipse cx="48.98" cy="154.21" fill="#f4ac45" rx="11.33" ry="2.33"/><ellipse cx="48.98" cy="156.59" fill="#f4ac45" rx="11.33" ry="2.33"/><path d="m49 156.27c-6 0-11-1-11.31-2.19a.3.3 0 0 0 0 .13c0 1.29 5.07 2.34 11.33 2.34s11.33-1.05 11.33-2.34a.59.59 0 0 0 0-.13c-.41 1.22-5.35 2.19-11.35 2.19z" fill="#ffdbab"/><path d="m60.3 154.3c-.21 1.25-5.2 2.25-11.32 2.25s-11.33-1.05-11.33-2.34v2.38c0 1.28 5.07 2.33 11.33 2.33s11.33-1 11.33-2.33c0 0 0-.06 0-.09z" fill="#db9542"/><path d="m49 155.92c-6.48 0-10.8-1-10.69-1.71 0-1 4.21-2.11 10.69-2.11s10.69 1.11 10.69 2.11c-.44.64-4.23 1.71-10.69 1.71z" fill="none" stroke="#db9542" stroke-miterlimit="10" stroke-width="1.07"/><path d="m37.88 156.75a.11.11 0 0 1 -.12-.11v-1.64a.11.11 0 0 1 .12-.11.11.11 0 0 1 .12.11v1.63a.11.11 0 0 1 -.12.12z" fill="#7f7f7f" opacity=".4"/><path d="m39.35 157.61a.12.12 0 0 1 -.12-.11v-1.63a.12.12 0 0 1 .12-.11.11.11 0 0 1 .11.11v1.63a.11.11 0 0 1 -.11.11z" fill="#7f7f7f" opacity=".4"/><path d="m40.82 157.92a.11.11 0 0 1 -.11-.12v-1.62a.11.11 0 1 1 .22 0v1.62a.11.11 0 0 1 -.11.12z" fill="#7f7f7f" opacity=".4"/><path d="m42.29 158.24a.11.11 0 0 1 -.11-.11v-1.63a.11.11 0 0 1 .11-.11.11.11 0 0 1 .12.11v1.63a.11.11 0 0 1 -.12.11z" fill="#7f7f7f" opacity=".4"/><path d="m43.77 158.45a.11.11 0 0 1 -.12-.11v-1.63a.11.11 0 0 1 .12-.11.11.11 0 0 1 .11.11v1.63a.11.11 0 0 1 -.11.11z" fill="#7f7f7f" opacity=".4"/><path d="m45.24 158.55a.12.12 0 0 1 -.11-.12v-1.62a.11.11 0 1 1 .22 0v1.62a.12.12 0 0 1 -.11.12z" fill="#7f7f7f" opacity=".4"/><path d="m46.71 158.65a.11.11 0 0 1 -.11-.11v-1.63a.11.11 0 0 1 .11-.11.12.12 0 0 1 .12.11v1.63a.12.12 0 0 1 -.12.11z" fill="#7f7f7f" opacity=".4"/><path d="m48.18 158.65a.11.11 0 0 1 -.11-.11v-1.63a.11.11 0 0 1 .11-.11.11.11 0 0 1 .12.11v1.63a.11.11 0 0 1 -.12.11z" fill="#7f7f7f" opacity=".4"/><path d="m49.66 158.64a.12.12 0 0 1 -.12-.12v-1.62a.13.13 0 0 1 .12-.12.12.12 0 0 1 .11.12v1.62a.11.11 0 0 1 -.11.12z" fill="#7f7f7f" opacity=".4"/><path d="m51.13 158.62a.11.11 0 0 1 -.11-.11v-1.63a.11.11 0 1 1 .22 0v1.63a.11.11 0 0 1 -.11.11z" fill="#7f7f7f" opacity=".4"/><path d="m52.6 158.48a.11.11 0 0 1 -.11-.11v-1.63a.11.11 0 0 1 .11-.11.11.11 0 0 1 .12.11v1.63a.11.11 0 0 1 -.12.11z" fill="#7f7f7f" opacity=".4"/><path d="m54.08 158.33a.11.11 0 0 1 -.12-.11v-1.63a.11.11 0 0 1 .12-.11.11.11 0 0 1 .11.11v1.63a.11.11 0 0 1 -.11.11z" fill="#7f7f7f" opacity=".4"/><path d="m55.55 158.15a.11.11 0 0 1 -.11-.12v-1.62a.11.11 0 1 1 .22 0v1.59a.11.11 0 0 1 -.11.15z" fill="#7f7f7f" opacity=".4"/><path d="m57 157.86a.12.12 0 0 1 -.11-.12v-1.62a.11.11 0 0 1 .11-.12.12.12 0 0 1 .12.12v1.62a.13.13 0 0 1 -.12.12z" fill="#7f7f7f" opacity=".4"/><path d="m58.49 157.52a.11.11 0 0 1 -.11-.12v-1.62a.12.12 0 0 1 .11-.12.12.12 0 0 1 .12.12v1.62a.12.12 0 0 1 -.12.12z" fill="#7f7f7f" opacity=".4"/><path d="m60 156.83a.12.12 0 0 1 -.12-.12v-1.62a.12.12 0 0 1 .12-.09.12.12 0 0 1 .11.12v1.62a.11.11 0 0 1 -.11.09z" fill="#7f7f7f" opacity=".4"/><path d="m52.44 155.05-.83-.26a14.69 14.69 0 0 1 -1.91.14l-.75-.36a13.19 13.19 0 0 0 1.88-.12c.52-.09.67-.2.33-.31a5.7 5.7 0 0 0 -1.72-.08 9.88 9.88 0 0 1 -3.22-.23c-.77-.23-.82-.51 0-.72l-.83-.25.89-.15.72.29a11.15 11.15 0 0 1 1.59-.12l.73.34a11.07 11.07 0 0 0 -1.6.12c-.58.09-.53.2-.28.28a7.17 7.17 0 0 0 1.83.05 9.25 9.25 0 0 1 3.14.26c.78.24.88.53 0 .75l.9.28z" fill="#db9542"/><path d="m56.7 156.06a2.6 2.6 0 0 1 -2.62-2.62.12.12 0 0 0 -.23 0c-.12 1.39-.51 2.33-2.62 2.62a.12.12 0 0 0 0 .23c1.83.12 2.41.73 2.62 2.62a.12.12 0 0 0 .23 0c.17-1.79.77-2.44 2.62-2.62a.12.12 0 0 0 0-.23z" fill="#fff" opacity=".9"/><path d="m129.88 161.93c.15.83-7.49 2.82-19.12 5.06-12 2.32-21 .09-21.68-1.14-.41-.74-1-2.57 10.68-4.52s29.74-1.55 30.12.6z" fill="#7a7a7a" opacity=".4"/><ellipse cx="117.14" cy="159.27" fill="#f4ac45" rx="11.33" ry="2.33"/><ellipse cx="117.14" cy="161.64" fill="#f4ac45" rx="11.33" ry="2.33"/><path d="m117.14 161.32c-6 0-11-1-11.31-2.19a.59.59 0 0 0 0 .14c0 1.28 5.07 2.33 11.33 2.33s11.33-1 11.33-2.33a.59.59 0 0 0 0-.14c-.39 1.22-5.32 2.19-11.35 2.19z" fill="#ffdbab"/><path d="m128.46 159.35c-.21 1.25-5.2 2.25-11.32 2.25s-11.33-1-11.33-2.33v2.37c0 1.29 5.07 2.33 11.33 2.33s11.33-1 11.33-2.33a.19.19 0 0 0 0-.08z" fill="#db9542"/><path d="m117.14 161c-6.48 0-10.8-1-10.69-1.7 0-1 4.21-2.12 10.69-2.12s10.69 1.12 10.69 2.12c-.41.6-4.21 1.7-10.69 1.7z" fill="none" stroke="#db9542" stroke-miterlimit="10" stroke-width="1.07"/><path d="m106 161.8a.12.12 0 0 1 -.12-.11v-1.63a.12.12 0 0 1 .12-.06.11.11 0 0 1 .11.11v1.63a.11.11 0 0 1 -.11.06z" fill="#7f7f7f" opacity=".4"/><path d="m107.51 162.66a.11.11 0 0 1 -.11-.11v-1.63a.11.11 0 0 1 .22 0v1.63a.11.11 0 0 1 -.11.11z" fill="#7f7f7f" opacity=".4"/><path d="m109 163a.11.11 0 0 1 -.11-.11v-1.63a.11.11 0 0 1 .11-.11.11.11 0 0 1 .12.11v1.63a.11.11 0 0 1 -.12.11z" fill="#7f7f7f" opacity=".4"/><path d="m110.46 163.29a.11.11 0 0 1 -.12-.11v-1.63a.11.11 0 0 1 .12-.11.11.11 0 0 1 .11.11v1.63a.11.11 0 0 1 -.11.11z" fill="#7f7f7f" opacity=".4"/><path d="m111.93 163.51a.11.11 0 0 1 -.11-.12v-1.62a.11.11 0 1 1 .22 0v1.62a.11.11 0 0 1 -.11.12z" fill="#7f7f7f" opacity=".4"/><path d="m113.4 163.6a.11.11 0 0 1 -.11-.11v-1.63a.11.11 0 0 1 .11-.11.12.12 0 0 1 .12.11v1.63a.12.12 0 0 1 -.12.11z" fill="#7f7f7f" opacity=".4"/><path d="m114.87 163.71a.11.11 0 0 1 -.11-.12v-1.59a.11.11 0 0 1 .11-.12.12.12 0 0 1 .12.12v1.62a.12.12 0 0 1 -.12.09z" fill="#7f7f7f" opacity=".4"/><path d="m116.35 163.71a.12.12 0 0 1 -.12-.12v-1.59a.12.12 0 0 1 .12-.12.11.11 0 0 1 .11.12v1.62a.11.11 0 0 1 -.11.09z" fill="#7f7f7f" opacity=".4"/><path d="m117.82 163.69a.11.11 0 0 1 -.11-.11v-1.58a.11.11 0 1 1 .22 0v1.63a.11.11 0 0 1 -.11.06z" fill="#7f7f7f" opacity=".4"/><path d="m119.29 163.68a.12.12 0 0 1 -.11-.12v-1.62a.11.11 0 0 1 .11-.12.12.12 0 0 1 .12.12v1.62a.12.12 0 0 1 -.12.12z" fill="#7f7f7f" opacity=".4"/><path d="m120.77 163.54a.12.12 0 0 1 -.12-.12v-1.62a.12.12 0 0 1 .12-.12.12.12 0 0 1 .11.12v1.62a.11.11 0 0 1 -.11.12z" fill="#7f7f7f" opacity=".4"/><path d="m122.24 163.38a.11.11 0 0 1 -.11-.11v-1.63a.11.11 0 0 1 .22 0v1.63a.11.11 0 0 1 -.11.11z" fill="#7f7f7f" opacity=".4"/><path d="m123.71 163.2a.11.11 0 0 1 -.11-.11v-1.63a.11.11 0 1 1 .22 0v1.63a.11.11 0 0 1 -.11.11z" fill="#7f7f7f" opacity=".4"/><path d="m125.18 162.91a.11.11 0 0 1 -.11-.11v-1.63a.11.11 0 0 1 .11-.11.11.11 0 0 1 .12.11v1.63a.11.11 0 0 1 -.12.11z" fill="#7f7f7f" opacity=".4"/><path d="m126.66 162.57a.11.11 0 0 1 -.12-.11v-1.63a.11.11 0 0 1 .12-.11.11.11 0 0 1 .11.11v1.63a.11.11 0 0 1 -.11.11z" fill="#7f7f7f" opacity=".4"/><path d="m128.13 161.88a.11.11 0 0 1 -.11-.11v-1.63a.11.11 0 1 1 .22 0v1.63a.11.11 0 0 1 -.11.11z" fill="#7f7f7f" opacity=".4"/><path d="m120.61 160.1-.84-.25a14.56 14.56 0 0 1 -1.9.13l-.76-.36a13.19 13.19 0 0 0 1.88-.12c.52-.08.68-.2.33-.31a5.65 5.65 0 0 0 -1.72-.08 9.94 9.94 0 0 1 -3.22-.22c-.77-.24-.82-.51 0-.73l-.84-.25.89-.14.77.23a11.25 11.25 0 0 1 1.59-.12l.73.34a12.75 12.75 0 0 0 -1.6.12c-.58.1-.53.2-.28.28a6.77 6.77 0 0 0 1.83 0 9.22 9.22 0 0 1 3.14.26c.78.24.88.53 0 .76l.89.27z" fill="#db9542"/><ellipse cx="100.8" cy="162.81" fill="#f4ac45" rx="11.33" ry="2.33"/><ellipse cx="100.8" cy="165.19" fill="#f4ac45" rx="11.33" ry="2.33"/><path d="m100.8 164.87c-6 0-11-1-11.32-2.19a.59.59 0 0 0 0 .13c0 1.29 5.08 2.34 11.34 2.34s11.33-1.05 11.33-2.34a.59.59 0 0 0 0-.13c-.39 1.22-5.32 2.19-11.35 2.19z" fill="#ffdbab"/><path d="m112.12 162.9c-.22 1.25-5.2 2.25-11.32 2.25s-11.34-1.05-11.34-2.34v2.38c0 1.28 5.08 2.33 11.34 2.33s11.33-1.05 11.33-2.33c0 0 0-.06 0-.09z" fill="#db9542"/><path d="m100.8 164.52c-6.48 0-10.8-1-10.7-1.71 0-1 4.22-2.11 10.7-2.11s10.69 1.11 10.69 2.11c-.42.64-4.22 1.71-10.69 1.71z" fill="none" stroke="#db9542" stroke-miterlimit="10" stroke-width="1.07"/><path d="m89.69 165.35a.11.11 0 0 1 -.11-.11v-1.63a.11.11 0 0 1 .11-.11.11.11 0 0 1 .12.11v1.63a.11.11 0 0 1 -.12.11z" fill="#7f7f7f" opacity=".4"/><path d="m91.17 166.21a.11.11 0 0 1 -.12-.11v-1.63a.11.11 0 0 1 .12-.11.11.11 0 0 1 .11.11v1.63a.11.11 0 0 1 -.11.11z" fill="#7f7f7f" opacity=".4"/><path d="m92.64 166.52a.11.11 0 0 1 -.11-.12v-1.62a.11.11 0 1 1 .22 0v1.62a.11.11 0 0 1 -.11.12z" fill="#7f7f7f" opacity=".4"/><path d="m94.11 166.84a.11.11 0 0 1 -.11-.11v-1.63a.11.11 0 0 1 .11-.11.12.12 0 0 1 .12.11v1.63a.12.12 0 0 1 -.12.11z" fill="#7f7f7f" opacity=".4"/><path d="m95.58 167.05a.11.11 0 0 1 -.11-.11v-1.63a.11.11 0 0 1 .11-.11.11.11 0 0 1 .12.11v1.63a.11.11 0 0 1 -.12.11z" fill="#7f7f7f" opacity=".4"/><path d="m97.06 167.15a.12.12 0 0 1 -.12-.12v-1.62a.12.12 0 0 1 .12-.12.11.11 0 0 1 .11.12v1.59a.11.11 0 0 1 -.11.15z" fill="#7f7f7f" opacity=".4"/><path d="m98.53 167.25a.11.11 0 0 1 -.11-.11v-1.63a.11.11 0 0 1 .22 0v1.63a.11.11 0 0 1 -.11.11z" fill="#7f7f7f" opacity=".4"/><path d="m100 167.25a.11.11 0 0 1 -.11-.11v-1.63a.11.11 0 0 1 .11-.11.11.11 0 0 1 .12.11v1.63a.11.11 0 0 1 -.12.11z" fill="#7f7f7f" opacity=".4"/><path d="m101.48 167.24a.12.12 0 0 1 -.12-.12v-1.62a.11.11 0 0 1 .12-.11.11.11 0 0 1 .11.11v1.62a.11.11 0 0 1 -.11.12z" fill="#7f7f7f" opacity=".4"/><path d="m103 167.22a.11.11 0 0 1 -.11-.11v-1.63a.11.11 0 0 1 .22 0v1.63a.11.11 0 0 1 -.11.11z" fill="#7f7f7f" opacity=".4"/><path d="m104.42 167.08a.11.11 0 0 1 -.11-.11v-1.62a.11.11 0 1 1 .22 0v1.65a.11.11 0 0 1 -.11.08z" fill="#7f7f7f" opacity=".4"/><path d="m105.89 166.93a.11.11 0 0 1 -.11-.11v-1.63a.11.11 0 0 1 .11-.11.11.11 0 0 1 .12.11v1.63a.11.11 0 0 1 -.12.11z" fill="#7f7f7f" opacity=".4"/><path d="m107.37 166.75a.12.12 0 0 1 -.12-.12v-1.63a.12.12 0 0 1 .12-.12.12.12 0 0 1 .11.12v1.62a.11.11 0 0 1 -.11.13z" fill="#7f7f7f" opacity=".4"/><path d="m108.84 166.46a.12.12 0 0 1 -.11-.12v-1.62a.11.11 0 1 1 .22 0v1.62a.12.12 0 0 1 -.11.12z" fill="#7f7f7f" opacity=".4"/><path d="m110.31 166.12a.11.11 0 0 1 -.11-.12v-1.62a.11.11 0 0 1 .11-.11.12.12 0 0 1 .12.11v1.62a.12.12 0 0 1 -.12.12z" fill="#7f7f7f" opacity=".4"/><path d="m111.79 165.43a.12.12 0 0 1 -.12-.12v-1.62a.12.12 0 0 1 .12-.12.12.12 0 0 1 .11.12v1.62a.11.11 0 0 1 -.11.12z" fill="#7f7f7f" opacity=".4"/><path d="m104.26 163.65-.83-.26a14.69 14.69 0 0 1 -1.91.14l-.75-.36a13.28 13.28 0 0 0 1.88-.12c.51-.09.67-.2.32-.31a5.6 5.6 0 0 0 -1.71-.08 10 10 0 0 1 -3.23-.23c-.77-.23-.81-.51 0-.72l-.83-.25.88-.15.77.24a11.28 11.28 0 0 1 1.6-.12l.73.34a12.62 12.62 0 0 0 -1.6.12c-.59.1-.53.2-.29.28a7.3 7.3 0 0 0 1.84.05 9.25 9.25 0 0 1 3.14.26c.78.24.87.53 0 .75l.89.28z" fill="#db9542"/><ellipse cx="108.72" cy="157.53" fill="#f4ac45" rx="11.33" ry="2.33"/><ellipse cx="108.72" cy="159.9" fill="#f4ac45" rx="11.33" ry="2.33"/><path d="m108.72 159.58c-6 0-11-1-11.31-2.19a.68.68 0 0 0 0 .14c0 1.29 5.08 2.33 11.33 2.33s11.34-1 11.34-2.33a.68.68 0 0 0 0-.14c-.39 1.22-5.32 2.19-11.36 2.19z" fill="#ffdbab"/><path d="m120.05 157.61c-.22 1.25-5.2 2.25-11.33 2.25s-11.33-1-11.33-2.33v2.37c0 1.29 5.08 2.33 11.33 2.33s11.34-1 11.34-2.33c0 0 0-.05 0-.08z" fill="#db9542"/><path d="m108.72 159.23c-6.47 0-10.79-1-10.69-1.7 0-1 4.22-2.12 10.69-2.12s10.7 1.12 10.7 2.12c-.42.63-4.22 1.7-10.7 1.7z" fill="none" stroke="#db9542" stroke-miterlimit="10" stroke-width="1.07"/><path d="m97.62 160.07a.12.12 0 0 1 -.11-.12v-1.62a.11.11 0 0 1 .11-.12.12.12 0 0 1 .12.12v1.67a.13.13 0 0 1 -.12.07z" fill="#7f7f7f" opacity=".4"/><path d="m99.09 160.92a.11.11 0 0 1 -.11-.11v-1.63a.11.11 0 0 1 .11-.11.11.11 0 0 1 .12.11v1.63a.11.11 0 0 1 -.12.11z" fill="#7f7f7f" opacity=".4"/><path d="m100.57 161.23a.12.12 0 0 1 -.12-.11v-1.63a.12.12 0 0 1 .12-.11.11.11 0 0 1 .11.11v1.63a.11.11 0 0 1 -.11.11z" fill="#7f7f7f" opacity=".4"/><path d="m102 161.55a.11.11 0 0 1 -.11-.11v-1.63a.11.11 0 1 1 .22 0v1.63a.11.11 0 0 1 -.11.11z" fill="#7f7f7f" opacity=".4"/><path d="m103.51 161.77a.11.11 0 0 1 -.11-.12v-1.65a.11.11 0 0 1 .11-.11.11.11 0 0 1 .12.11v1.62a.12.12 0 0 1 -.12.15z" fill="#7f7f7f" opacity=".4"/><path d="m105 161.86a.11.11 0 0 1 -.12-.11v-1.63a.11.11 0 0 1 .12-.12.11.11 0 0 1 .11.11v1.63a.11.11 0 0 1 -.11.12z" fill="#7f7f7f" opacity=".4"/><path d="m106.46 162a.11.11 0 0 1 -.11-.12v-1.62a.11.11 0 1 1 .22 0v1.62a.11.11 0 0 1 -.11.12z" fill="#7f7f7f" opacity=".4"/><path d="m107.93 162a.11.11 0 0 1 -.11-.12v-1.62a.12.12 0 0 1 .11-.12.13.13 0 0 1 .12.12v1.62a.12.12 0 0 1 -.12.12z" fill="#7f7f7f" opacity=".4"/><path d="m109.4 162a.11.11 0 0 1 -.11-.11v-1.63a.11.11 0 0 1 .11-.11.11.11 0 0 1 .12.11v1.63a.11.11 0 0 1 -.12.11z" fill="#7f7f7f" opacity=".4"/><path d="m110.88 161.94a.12.12 0 0 1 -.12-.12v-1.62a.12.12 0 0 1 .12-.12.11.11 0 0 1 .11.12v1.62a.11.11 0 0 1 -.11.12z" fill="#7f7f7f" opacity=".4"/><path d="m112.35 161.8a.11.11 0 0 1 -.11-.11v-1.63a.11.11 0 1 1 .22 0v1.63a.11.11 0 0 1 -.11.11z" fill="#7f7f7f" opacity=".4"/><path d="m113.82 161.65a.12.12 0 0 1 -.11-.12v-1.62a.11.11 0 0 1 .11-.12.12.12 0 0 1 .12.12v1.62a.12.12 0 0 1 -.12.12z" fill="#7f7f7f" opacity=".4"/><path d="m115.3 161.46a.11.11 0 0 1 -.12-.11v-1.63a.11.11 0 0 1 .12-.11.11.11 0 0 1 .11.11v1.63a.11.11 0 0 1 -.11.11z" fill="#7f7f7f" opacity=".4"/><path d="m116.77 161.17a.11.11 0 0 1 -.11-.11v-1.63a.11.11 0 1 1 .22 0v1.63a.11.11 0 0 1 -.11.11z" fill="#7f7f7f" opacity=".4"/><path d="m118.24 160.83a.11.11 0 0 1 -.11-.11v-1.63a.11.11 0 1 1 .22 0v1.63a.11.11 0 0 1 -.11.11z" fill="#7f7f7f" opacity=".4"/><path d="m119.71 160.14a.11.11 0 0 1 -.11-.11v-1.63a.11.11 0 0 1 .11-.11.11.11 0 0 1 .12.11v1.6a.11.11 0 0 1 -.12.14z" fill="#7f7f7f" opacity=".4"/><path d="m112.19 158.36-.83-.25a13.13 13.13 0 0 1 -1.91.13l-.75-.36a10.86 10.86 0 0 0 1.88-.12c.51-.08.67-.2.32-.31a5.38 5.38 0 0 0 -1.71-.07 10 10 0 0 1 -3.23-.23c-.77-.24-.81-.51 0-.72l-.83-.26.87-.17.77.23a13 13 0 0 1 1.6-.12l.72.35a10.66 10.66 0 0 0 -1.59.11c-.59.1-.53.21-.29.28a6.82 6.82 0 0 0 1.84.05 9.25 9.25 0 0 1 3.14.26c.78.24.87.54 0 .76l.89.27z" fill="#db9542"/><path d="m119.94 158.74a2.6 2.6 0 0 1 -2.63-2.62.11.11 0 0 0 -.22 0c-.13 1.39-.52 2.33-2.63 2.62-.12 0-.12.22 0 .23 1.84.12 2.42.73 2.63 2.62a.11.11 0 0 0 .22 0c.17-1.79.77-2.44 2.63-2.62.12.03.12-.22 0-.23z" fill="#fff" opacity=".9"/><ellipse cx="152.86" cy="159.04" fill="#7a7a7a" opacity=".4" rx="19.9" ry="1.58"/><ellipse cx="145.9" cy="155.2" fill="#f4ac45" rx="11.33" ry="2.33"/><ellipse cx="145.9" cy="157.57" fill="#f4ac45" rx="11.33" ry="2.33"/><path d="m145.9 157.25c-6 0-11-1-11.31-2.19a.68.68 0 0 0 0 .14c0 1.29 5.07 2.33 11.33 2.33s11.33-1 11.33-2.33a.34.34 0 0 0 0-.14c-.39 1.22-5.32 2.19-11.35 2.19z" fill="#ffdbab"/><path d="m157.22 155.28c-.21 1.25-5.2 2.25-11.32 2.25s-11.33-1-11.33-2.33v2.37c0 1.29 5.07 2.33 11.33 2.33s11.33-1 11.33-2.33a.22.22 0 0 0 0-.08z" fill="#db9542"/><path d="m145.9 156.9c-6.48 0-10.8-1-10.69-1.7 0-1 4.21-2.12 10.69-2.12s10.69 1.12 10.69 2.12c-.41.63-4.21 1.7-10.69 1.7z" fill="none" stroke="#db9542" stroke-miterlimit="10" stroke-width="1.07"/><path d="m134.8 157.74a.12.12 0 0 1 -.11-.12v-1.62a.11.11 0 1 1 .22 0v1.62a.12.12 0 0 1 -.11.12z" fill="#7f7f7f" opacity=".4"/><path d="m136.27 158.59a.11.11 0 0 1 -.11-.11v-1.63a.11.11 0 0 1 .11-.11.12.12 0 0 1 .12.11v1.63a.12.12 0 0 1 -.12.11z" fill="#7f7f7f" opacity=".4"/><path d="m137.74 158.9a.11.11 0 0 1 -.11-.11v-1.63a.11.11 0 0 1 .11-.11.11.11 0 0 1 .12.11v1.63a.11.11 0 0 1 -.12.11z" fill="#7f7f7f" opacity=".4"/><path d="m139.22 159.22a.11.11 0 0 1 -.12-.11v-1.63a.11.11 0 0 1 .12-.11.11.11 0 0 1 .11.11v1.63a.11.11 0 0 1 -.11.11z" fill="#7f7f7f" opacity=".4"/><path d="m140.69 159.44a.11.11 0 0 1 -.11-.12v-1.62a.11.11 0 1 1 .22 0v1.62a.11.11 0 0 1 -.11.12z" fill="#7f7f7f" opacity=".4"/><path d="m142.16 159.53a.11.11 0 0 1 -.11-.11v-1.63a.11.11 0 0 1 .11-.11.11.11 0 0 1 .12.11v1.63a.11.11 0 0 1 -.12.11z" fill="#7f7f7f" opacity=".4"/><path d="m143.64 159.64a.12.12 0 0 1 -.12-.12v-1.62a.12.12 0 0 1 .12-.12.12.12 0 0 1 .11.12v1.62a.11.11 0 0 1 -.11.12z" fill="#7f7f7f" opacity=".4"/><path d="m145.11 159.64a.11.11 0 0 1 -.11-.12v-1.62a.11.11 0 1 1 .22 0v1.62a.11.11 0 0 1 -.11.12z" fill="#7f7f7f" opacity=".4"/><path d="m146.58 159.62a.11.11 0 0 1 -.11-.11v-1.63a.11.11 0 0 1 .22 0v1.63a.11.11 0 0 1 -.11.11z" fill="#7f7f7f" opacity=".4"/><path d="m148.05 159.61a.11.11 0 0 1 -.11-.12v-1.62a.11.11 0 0 1 .11-.12.12.12 0 0 1 .12.12v1.62a.12.12 0 0 1 -.12.12z" fill="#7f7f7f" opacity=".4"/><path d="m149.53 159.47a.11.11 0 0 1 -.12-.11v-1.63a.11.11 0 0 1 .12-.11.11.11 0 0 1 .11.11v1.63a.11.11 0 0 1 -.11.11z" fill="#7f7f7f" opacity=".4"/><path d="m151 159.32a.12.12 0 0 1 -.11-.12v-1.62a.11.11 0 1 1 .22 0v1.62a.12.12 0 0 1 -.11.12z" fill="#7f7f7f" opacity=".4"/><path d="m152.47 159.13a.11.11 0 0 1 -.11-.11v-1.63a.11.11 0 0 1 .11-.11.11.11 0 0 1 .12.11v1.61a.11.11 0 0 1 -.12.13z" fill="#7f7f7f" opacity=".4"/><path d="m154 158.84a.11.11 0 0 1 -.12-.11v-1.63a.11.11 0 0 1 .12-.1.11.11 0 0 1 .11.11v1.63a.11.11 0 0 1 -.11.1z" fill="#7f7f7f" opacity=".4"/><path d="m155.42 158.5a.12.12 0 0 1 -.12-.11v-1.63a.12.12 0 0 1 .12-.11.11.11 0 0 1 .11.11v1.63a.11.11 0 0 1 -.11.11z" fill="#7f7f7f" opacity=".4"/><path d="m156.89 157.81a.11.11 0 0 1 -.11-.11v-1.63a.11.11 0 1 1 .22 0v1.63a.11.11 0 0 1 -.11.11z" fill="#7f7f7f" opacity=".4"/><path d="m149.37 156-.83-.25a13.13 13.13 0 0 1 -1.91.13l-.76-.35a12.09 12.09 0 0 0 1.89-.13c.51-.08.67-.2.32-.31a5.42 5.42 0 0 0 -1.72-.07 9.91 9.91 0 0 1 -3.22-.23c-.77-.24-.81-.51 0-.72l-.83-.26.88-.14.77.23a13 13 0 0 1 1.59-.12l.73.35a10.58 10.58 0 0 0 -1.59.11c-.59.1-.53.21-.29.28a6.77 6.77 0 0 0 1.83 0 9.22 9.22 0 0 1 3.14.26c.78.24.88.54 0 .76l.89.27z" fill="#db9542"/><ellipse cx="159.71" cy="153.26" fill="#f4ac45" rx="2.33" ry="11.33" transform="matrix(.25409557 -.96717912 .96717912 .25409557 -29.1 268.79)"/><ellipse cx="159.11" cy="155.55" fill="#f4ac45" rx="2.33" ry="11.33" transform="matrix(.25409557 -.96717912 .96717912 .25409557 -31.77 269.92)"/><path d="m159.19 155.24c-5.84-1.53-10.36-3.72-10.39-5a.5.5 0 0 0 -.05.13c-.33 1.24 4.31 3.54 10.37 5.13s11.22 1.87 11.55.63a.71.71 0 0 0 0-.14c-.67 1.1-5.67.79-11.48-.75z" fill="#ffdbab"/><path d="m170.64 156.21c-.53 1.16-5.6.86-11.52-.7s-10.7-3.89-10.37-5.13l-.6 2.29c-.33 1.25 4.31 3.55 10.36 5.14s11.23 1.87 11.56.62a.22.22 0 0 1 0-.08z" fill="#db9542"/><path d="m159.28 154.91c-6.27-1.65-10.19-3.73-9.91-4.37.25-.95 4.61-1 10.88.67s10.05 3.8 9.8 4.76c-.56.51-4.51.58-10.77-1.06z" fill="none" stroke="#db9542" stroke-miterlimit="10" stroke-width="1.07"/><path d="m148.33 152.89a.13.13 0 0 1 -.09-.14l.42-1.57a.11.11 0 0 1 .14-.08.12.12 0 0 1 .08.14l-.42 1.57a.1.1 0 0 1 -.13.08z" fill="#7f7f7f" opacity=".4"/><path d="m149.53 154.1a.12.12 0 0 1 -.08-.14l.41-1.58a.12.12 0 0 1 .14-.08.11.11 0 0 1 .08.14l-.41 1.57a.13.13 0 0 1 -.14.09z" fill="#7f7f7f" opacity=".4"/><path d="m150.88 154.77a.11.11 0 0 1 -.08-.14l.41-1.58a.12.12 0 0 1 .14-.08.11.11 0 0 1 .08.14l-.41 1.58a.12.12 0 0 1 -.14.08z" fill="#7f7f7f" opacity=".4"/><path d="m152.22 155.45a.11.11 0 0 1 -.08-.14l.41-1.57a.11.11 0 1 1 .22.06l-.41 1.57a.11.11 0 0 1 -.14.08z" fill="#7f7f7f" opacity=".4"/><path d="m153.59 156a.1.1 0 0 1 -.08-.13l.41-1.58a.12.12 0 0 1 .14-.08.11.11 0 0 1 .08.14l-.41 1.57a.11.11 0 0 1 -.14.08z" fill="#7f7f7f" opacity=".4"/><path d="m155 156.5a.12.12 0 0 1 -.08-.14l.41-1.57a.13.13 0 0 1 .14-.09.11.11 0 0 1 .08.14l-.41 1.58a.12.12 0 0 1 -.14.08z" fill="#7f7f7f" opacity=".4"/><path d="m156.39 157a.11.11 0 0 1 -.08-.14l.41-1.58a.12.12 0 0 1 .14-.08.11.11 0 0 1 .08.14l-.41 1.57a.13.13 0 0 1 -.14.09z" fill="#7f7f7f" opacity=".4"/><path d="m157.81 157.35a.12.12 0 0 1 -.08-.14l.42-1.57a.1.1 0 0 1 .13-.08.12.12 0 0 1 .09.14l-.42 1.57a.11.11 0 0 1 -.14.08z" fill="#7f7f7f" opacity=".4"/><path d="m159.24 157.71a.12.12 0 0 1 -.08-.14l.41-1.57a.11.11 0 0 1 .14-.08.1.1 0 0 1 .08.13l-.41 1.58a.12.12 0 0 1 -.14.08z" fill="#7f7f7f" opacity=".4"/><path d="m160.67 158.07a.11.11 0 0 1 -.08-.14l.41-1.57a.11.11 0 0 1 .14-.08.1.1 0 0 1 .08.13l-.41 1.58a.12.12 0 0 1 -.14.08z" fill="#7f7f7f" opacity=".4"/><path d="m162.13 158.31a.11.11 0 0 1 -.08-.14l.41-1.57a.11.11 0 0 1 .14-.08.1.1 0 0 1 .08.13l-.41 1.58a.12.12 0 0 1 -.14.08z" fill="#7f7f7f" opacity=".4"/><path d="m163.59 158.53a.11.11 0 0 1 -.08-.13l.42-1.58a.11.11 0 0 1 .13-.08.13.13 0 0 1 .09.14l-.42 1.57a.11.11 0 0 1 -.14.08z" fill="#7f7f7f" opacity=".4"/><path d="m165.06 158.73a.12.12 0 0 1 -.08-.14l.42-1.57a.11.11 0 0 1 .14-.08.12.12 0 0 1 .08.14l-.42 1.57a.11.11 0 0 1 -.14.08z" fill="#7f7f7f" opacity=".4"/><path d="m166.56 158.82a.12.12 0 0 1 -.08-.14l.42-1.57a.1.1 0 0 1 .1-.11.11.11 0 0 1 .08.14l-.41 1.57a.11.11 0 0 1 -.11.11z" fill="#7f7f7f" opacity=".4"/><path d="m168.07 158.87a.12.12 0 0 1 -.08-.14l.42-1.57a.1.1 0 0 1 .13-.08.12.12 0 0 1 .09.14l-.42 1.57a.11.11 0 0 1 -.14.08z" fill="#7f7f7f" opacity=".4"/><path d="m169.67 158.58a.12.12 0 0 1 -.08-.14l.42-1.57a.11.11 0 0 1 .13-.09.13.13 0 0 1 .09.14l-.42 1.58a.12.12 0 0 1 -.14.08z" fill="#7f7f7f" opacity=".4"/><path d="m162.85 154.94-.74-.45a15.33 15.33 0 0 1 -1.88-.36l-.64-.53a12.59 12.59 0 0 0 1.85.35c.52.05.7 0 .39-.21a5.41 5.41 0 0 0 -1.64-.51 10 10 0 0 1 -3.06-1c-.68-.42-.65-.7.16-.71l-.74-.46.89.09.68.42a13 13 0 0 1 1.58.29l.61.52a10.45 10.45 0 0 0 -1.57-.29c-.59-.06-.57.06-.35.19a6.9 6.9 0 0 0 1.76.52 9.07 9.07 0 0 1 3 1.05c.7.42.72.73-.17.73l.79.49z" fill="#db9542"/><path d="m158.05 154.44a2.59 2.59 0 0 1 -2.62-2.63c0-.12-.22-.12-.23 0-.12 1.4-.52 2.34-2.63 2.63-.12 0-.12.22 0 .23 1.84.12 2.42.73 2.63 2.62a.12.12 0 0 0 .23 0c.17-1.79.77-2.44 2.62-2.62.12-.02.13-.22 0-.23z" fill="#fff" opacity=".9"/><ellipse cx="100.74" cy="149.53" fill="#7a7a7a" opacity=".4" rx="47.95" ry="1.74"/><path d="m54.94 94a4.71 4.71 0 0 1 -1.58-2.24 9.17 9.17 0 0 0 4.14-3.76 4.24 4.24 0 0 0 .3-4.37 3.35 3.35 0 0 0 -3.37-1.5 3.86 3.86 0 0 0 -2.68 1.38 8.22 8.22 0 0 0 -1.48 5.58c0 .26 0 .52.08.78a12.58 12.58 0 0 1 -3.56-.41 8.17 8.17 0 0 1 -1.66-.58l-3.2-1.52c1.6 2.33 6.59 5.2 9 5a7.24 7.24 0 0 0 2.53 3.64 6.67 6.67 0 0 0 2.86 1.16 9.81 9.81 0 0 1 1.07-2.4 4.67 4.67 0 0 1 -2.45-.76zm-2.15-5.1a5.77 5.77 0 0 1 .87-3.74 1.34 1.34 0 0 1 1-.51h.22a.91.91 0 0 1 .8.31 1.84 1.84 0 0 1 -.28 1.72 7 7 0 0 1 -2.54 2.57z" fill="#ffc0c0"/><path d="m57.39 94.77a9.81 9.81 0 0 0 -1.07 2.4l.72.09c.31-.84.66-1.67 1.05-2.48z" fill="#e5adad"/><path d="m150.87 111.5c-.15-1.6-2-2.1-3.26-2.7-4.8-2.36-4.28-8.34-6.08-12.66a32.36 32.36 0 0 0 -6.27-9.57 20.56 20.56 0 0 0 -3.51 6.89 1.5 1.5 0 0 1 -1.57 1c-6.5-.69-11.67-6.8-12.23-14.49a1.85 1.85 0 0 1 1.18-1.88c1-.37 2-.69 3-1a54 54 0 0 0 -22.59-4.83c-19 0-35.15 9.33-41.42 22.44-.39.81-.74 1.64-1.05 2.48a27.45 27.45 0 0 0 -1.73 9.58c0 .71 0 1.41.08 2.11 18.33 19.21 39.65 19.58 57 15.43a115.19 115.19 0 0 0 13.54-4.26c4.4-1.69 8.77-3.82 13.48-4a23.24 23.24 0 0 1 10.37 2.48 14.12 14.12 0 0 1 .57-4.54 6.77 6.77 0 0 0 .49-2.48z" fill="#ffc0c0"/><path d="m109.47 76.08c-5.08-1.7-15.14-1.56-20.25.3a1.15 1.15 0 0 0 -.58 1.89 1.8 1.8 0 0 0 1.9.4c4.17-1.54 13.63-1.69 17.7-.29a1.73 1.73 0 0 0 1.83-.4 1.17 1.17 0 0 0 -.6-1.9z" fill="#4f4343"/><path d="m82.13 81-.06-.07a1.92 1.92 0 0 1 -.43-1.93 38.41 38.41 0 0 0 -11.45 6.31c-4.41 3.57-7.49 8-8.67 12.37a15.82 15.82 0 0 0 -.34 1.57 15.41 15.41 0 0 0 -.21 3.17v-.12c1.31-4.89 4.73-9.77 9.62-13.73a42.83 42.83 0 0 1 12.7-7 2.09 2.09 0 0 1 -1.16-.57z" fill="#fff" opacity=".8"/><path d="m134.66 99.31c-1.29.21-2.08 1.89-1.76 3.75s1.61 3.18 2.9 3 2.07-1.9 1.76-3.75-1.56-3.22-2.9-3z" fill="#4f4343"/><path d="m118 80c.56 7.69 5.73 13.8 12.23 14.49a1.5 1.5 0 0 0 1.57-1 20.56 20.56 0 0 1 3.51-6.89 15.12 15.12 0 0 1 6.06-4.34 2.22 2.22 0 0 0 -.11-4.12 30.55 30.55 0 0 0 -19.11-.94c-1 .26-2 .58-3 1a1.85 1.85 0 0 0 -1.15 1.8zm21-.53c1.18.29 3.34.94 1.78 2.41a5.47 5.47 0 0 1 -1.34.8 16.09 16.09 0 0 0 -6.16 5.39c-1.35 2-1.6 5.67-4.88 4.29-7.5-3.16-4.67-8 .4-10.84 3.2-1.77 7.28-2.76 10.2-2.05z" fill="#e5adad"/><path d="m128.43 92.36c3.28 1.38 3.53-2.29 4.88-4.29a16.09 16.09 0 0 1 6.16-5.39 5.47 5.47 0 0 0 1.34-.8c1.56-1.47-.6-2.12-1.78-2.41-2.95-.71-7 .28-10.2 2-5.07 2.89-7.9 7.73-.4 10.89z" fill="#ffc0c0"/><path d="m139.39 116.16c-4.71.14-9.08 2.27-13.48 4a110.25 110.25 0 0 1 -13.54 4.26c-17.33 4.15-38.65 3.78-57-15.43a27.67 27.67 0 0 0 1.47 7c3.23 11.08 17.87 33.62 21 33.62h9.8a3.27 3.27 0 0 0 2.76-1.23 9.75 9.75 0 0 1 -2.72.46c-1.69 0-3.69.38-5.31-.29-1.93-.82-2.33-5.38-.89-6.69s3.61-1.06 5.33-.92c1.26.1 3.21-.08 4.41.65a1.78 1.78 0 0 1 .28-.65v-.06a56.29 56.29 0 0 0 8 .56 57.08 57.08 0 0 0 9.68-.83c.55 2.85 3.09 9 5.86 9h9.8a3.69 3.69 0 0 0 3-1.53c-2.36 1.07-6.4.6-8.25.19a2.91 2.91 0 0 1 -.8-.27c-1.3-.72-1.51-2.62-1.66-3.93s-.71-3.65.34-4.52c2.8-2.32 6.83-3.08 10.31-3.74l.35-.05a6.16 6.16 0 0 1 .3-1.66 6.26 6.26 0 0 1 1.37-2 29.08 29.08 0 0 0 3.21-2.71c3-2.94 3.6-3.81 7.84-4.79a33.44 33.44 0 0 0 7.31-3 2.75 2.75 0 0 0 1.55-2.73v-.15a23.24 23.24 0 0 0 -10.32-2.56z" fill="#e5adad"/><path d="m117.52 139.46c-1 .87-.47 3.29-.34 4.52s.36 3.21 1.66 3.93a2.91 2.91 0 0 0 .8.27c1.85.41 5.89.88 8.25-.19a3.61 3.61 0 0 0 .6-1.51c.5-3.16-.09-6.42-.3-9.58a8.41 8.41 0 0 1 0-1.23l-.35.05c-3.49.66-7.52 1.42-10.32 3.74z" fill="#ffc0c0"/><path d="m81.49 141.77c-1.44 1.31-1 5.87.89 6.69 1.62.67 3.62.32 5.31.29a9.75 9.75 0 0 0 2.72-.46 6.25 6.25 0 0 0 1-4 10.5 10.5 0 0 1 -.13-2.8c-1.2-.73-3.15-.55-4.41-.65-1.77-.13-3.99-.32-5.38.93z" fill="#ffc0c0"/></svg>