<svg xmlns="http://www.w3.org/2000/svg" viewBox="0 0 210 210"><defs><style>.cls-1{fill:#343579;}.cls-2{opacity:0;}.cls-3{fill:#f5d93f;}.cls-4,.cls-7{fill:#fff;}.cls-4{opacity:0.3;}.cls-5{fill:#d6b838;}.cls-6{fill:#f7f9aa;}.cls-8{fill:#73bf9a;}</style></defs><title>Asset 1</title><g id="Layer_2" data-name="Layer 2"><g id="Layer_1-2" data-name="Layer 1"><circle class="cls-1" cx="105" cy="105" r="105"/><path class="cls-2" d="M146.91,126.28,55.49,166.12a7.5,7.5,0,0,1-9.55-9.55L85.78,63.79ZM47.85,164.76q-3.27-3.27-1.91-8.19l3.28-7.36.82-1.1q23.46-36.29,48.3-71.49l18.55,19.1Q104.34,105,80.73,129T47.85,164.76ZM55.77,32.41C54,32.6,53,33.55,53,35.28s.91,2.59,2.73,2.59S58.5,37,58.5,35.28,57.58,32.6,55.77,32.41ZM65.59,72.8a4.48,4.48,0,0,1-1.36,3.27,4.77,4.77,0,1,1,0-6.82A4.85,4.85,0,0,1,65.59,72.8Zm20.19,45.84a2.7,2.7,0,0,1-3,2.73,2.73,2.73,0,1,1,0-5.46A2.7,2.7,0,0,1,85.78,118.64Zm40.66-33.56q12.83,13.1,18.69,24.56t2.05,15.83q-4.63,4.08-16.1-1.78t-24.42-18.83q-13-13-18.83-24.42t-2-16.1q4.64-3.83,16.1,1.91T126.44,85.08ZM99.7,72.8a3.43,3.43,0,0,0,3-1.64A6.28,6.28,0,0,1,103.79,69q1.63-3,3.41-7.1a25.85,25.85,0,0,0,2-9q.27-11.73-12-20.74a2.79,2.79,0,0,0-4.23.68,2.77,2.77,0,0,0,.41,4.23q9.83,7.37,9.28,15.83a16.17,16.17,0,0,1-1.5,6.82c-1,2.18-2,4.28-3.14,6.28L97,68.16a3.29,3.29,0,0,0,1.37,4.37,3,3,0,0,0,1.36.27Zm2.46,64.67a5.15,5.15,0,1,0,4,1.5A5.35,5.35,0,0,0,102.16,137.47ZM140.63,50.7h0a8.32,8.32,0,0,1-4.36,6,11,11,0,0,1-5.73,1.64l-1.91-.28a7.26,7.26,0,0,0-4.1.55,2.86,2.86,0,0,0-1.09,1.91,1.68,1.68,0,0,0,.55,1.91,7.36,7.36,0,0,0,3.54,1.91A13,13,0,0,1,134.9,68a7.66,7.66,0,0,1,2.18,6.69,8,8,0,0,1-4.36,6A12.66,12.66,0,0,1,127,82.08h-1.91a5.37,5.37,0,0,0-4.1.54,2.51,2.51,0,0,0-.4,4.1,8,8,0,0,0,3.68,1.63,2.49,2.49,0,0,1,2.18,3,2.79,2.79,0,0,1-2.73,2.72l-.54-.27a11.06,11.06,0,0,1-7.1-3.55,8,8,0,0,1-2.18-6.82,7.75,7.75,0,0,1,4.23-5.87,12.35,12.35,0,0,1,7.78-1.5,4.56,4.56,0,0,0,3.82-.54,1.8,1.8,0,0,0,1.36-1.5,2.74,2.74,0,0,0-.82-2.46,5,5,0,0,0-3.27-1.5h-.27a13.33,13.33,0,0,1-7-3.68,7.69,7.69,0,0,1-2.32-6.83,7.47,7.47,0,0,1,4.09-5.86,13,13,0,0,1,7.91-1.37,6.53,6.53,0,0,0,3.82-.54,2.54,2.54,0,0,0,1.37-1.91,1.68,1.68,0,0,0-.55-1.91,7.55,7.55,0,0,0-3.82-1.91,2.43,2.43,0,0,1-2-3.14,2.67,2.67,0,0,1,2.86-2.59A13.41,13.41,0,0,1,138.31,44,7.54,7.54,0,0,1,140.63,50.7Zm32.75,62.76a3.43,3.43,0,0,0,3-1.64c.72-2,.27-3.55-1.37-4.64l-2.45-1.36q-6-4.36-17.47-6.69t-26.19,8.6c-1.64,1.27-1.78,2.73-.41,4.36s2.86,1.91,4.5.82q12-9,21.29-7.09t15,6l2.73,1.37a3.1,3.1,0,0,0,1.37.27ZM152.09,67.07a5.07,5.07,0,0,0-4,1.64,6,6,0,0,0,0,7.91,5.59,5.59,0,0,0,7.91,0,6,6,0,0,0,0-7.91A5.09,5.09,0,0,0,152.09,67.07Zm0,77.22a4.26,4.26,0,0,0-3.14,1.23,4.24,4.24,0,1,0,6,0A3.94,3.94,0,0,0,152.09,144.29Zm10.1-98a2.7,2.7,0,0,1-3,2.73,2.41,2.41,0,0,1-2.73-2.73,2.41,2.41,0,0,1,2.73-2.73A2.7,2.7,0,0,1,162.19,46.33Zm18.28,40.93a4.24,4.24,0,0,1-1.23,3.14,4.23,4.23,0,1,1,0-6A3.92,3.92,0,0,1,180.47,87.26Z"/><path class="cls-3" d="M146.91,126.28,55.49,166.12a7.5,7.5,0,0,1-9.55-9.55L85.78,63.79Z"/><path class="cls-4" d="M47.85,164.76q-3.27-3.27-1.91-8.19l3.28-7.36.82-1.1q23.46-36.29,48.3-71.49l18.55,19.1Q104.34,105,80.73,129T47.85,164.76Z"/><path class="cls-5" d="M126.44,85.08q12.83,13.1,18.69,24.56t2.05,15.83q-4.63,4.08-16.1-1.78t-24.42-18.83q-13-13-18.83-24.42t-2-16.1q4.64-3.83,16.1,1.91T126.44,85.08Z"/><path class="cls-6" d="M85.78,118.64a2.7,2.7,0,0,1-3,2.73,2.73,2.73,0,1,1,0-5.46A2.7,2.7,0,0,1,85.78,118.64Z"/><path class="cls-3" d="M155,145.52a4.25,4.25,0,0,1-6,6,4.31,4.31,0,0,1,0-6,4.26,4.26,0,0,1,3.14-1.23A3.94,3.94,0,0,1,155,145.52ZM179.24,84.4a4.23,4.23,0,1,0,0,6,4.24,4.24,0,0,0,1.23-3.14A3.92,3.92,0,0,0,179.24,84.4Z"/><path class="cls-3" d="M140.63,50.7h0a8.32,8.32,0,0,1-4.36,6,11,11,0,0,1-5.73,1.64l-1.91-.28a7.26,7.26,0,0,0-4.1.55,2.86,2.86,0,0,0-1.09,1.91,1.68,1.68,0,0,0,.55,1.91,7.36,7.36,0,0,0,3.54,1.91A13,13,0,0,1,134.9,68a7.66,7.66,0,0,1,2.18,6.69,8,8,0,0,1-4.36,6A12.66,12.66,0,0,1,127,82.08h-1.91a5.37,5.37,0,0,0-4.1.54,2.51,2.51,0,0,0-.4,4.1,8,8,0,0,0,3.68,1.63,2.49,2.49,0,0,1,2.18,3,2.79,2.79,0,0,1-2.73,2.72l-.54-.27a11.06,11.06,0,0,1-7.1-3.55,8,8,0,0,1-2.18-6.82,7.75,7.75,0,0,1,4.23-5.87,12.35,12.35,0,0,1,7.78-1.5,4.56,4.56,0,0,0,3.82-.54,1.8,1.8,0,0,0,1.36-1.5,2.74,2.74,0,0,0-.82-2.46,5,5,0,0,0-3.27-1.5h-.27a13.33,13.33,0,0,1-7-3.68,7.69,7.69,0,0,1-2.32-6.83,7.47,7.47,0,0,1,4.09-5.86,13,13,0,0,1,7.91-1.37,6.53,6.53,0,0,0,3.82-.54,2.54,2.54,0,0,0,1.37-1.91,1.68,1.68,0,0,0-.55-1.91,7.55,7.55,0,0,0-3.82-1.91,2.43,2.43,0,0,1-2-3.14,2.67,2.67,0,0,1,2.86-2.59A13.41,13.41,0,0,1,138.31,44,7.54,7.54,0,0,1,140.63,50.7Z"/><path class="cls-7" d="M65.59,72.8a4.48,4.48,0,0,1-1.36,3.27,4.77,4.77,0,1,1,0-6.82A4.85,4.85,0,0,1,65.59,72.8Zm36.57,64.67a5.15,5.15,0,1,0,4,1.5A5.35,5.35,0,0,0,102.16,137.47Zm71.22-24a3.43,3.43,0,0,0,3-1.64c.72-2,.27-3.55-1.37-4.64l-2.45-1.36q-6-4.36-17.47-6.69t-26.19,8.6c-1.64,1.27-1.78,2.73-.41,4.36s2.86,1.91,4.5.82q12-9,21.29-7.09t15,6l2.73,1.37a3.1,3.1,0,0,0,1.37.27ZM152.09,67.07a5.07,5.07,0,0,0-4,1.64,6,6,0,0,0,0,7.91,5.59,5.59,0,0,0,7.91,0,6,6,0,0,0,0-7.91A5.09,5.09,0,0,0,152.09,67.07Z"/><path class="cls-8" d="M58.5,35.28c0,1.73-.92,2.59-2.73,2.59S53,37,53,35.28s.91-2.68,2.73-2.87C57.58,32.6,58.5,33.55,58.5,35.28ZM99.7,72.8a3,3,0,0,1-1.36-.27A3.29,3.29,0,0,1,97,68.16L98.06,66c1.09-2,2.14-4.1,3.14-6.28a16.17,16.17,0,0,0,1.5-6.82q.54-8.46-9.28-15.83A2.77,2.77,0,0,1,93,32.82a2.79,2.79,0,0,1,4.23-.68q12.29,9,12,20.74a25.85,25.85,0,0,1-2,9Q105.43,66,103.79,69a6.28,6.28,0,0,0-1.09,2.18,3.43,3.43,0,0,1-3,1.64Zm59.49-29.2a2.41,2.41,0,0,0-2.73,2.73,2.41,2.41,0,0,0,2.73,2.73,2.74,2.74,0,1,0,0-5.46Z"/></g></g></svg>