<svg xmlns="http://www.w3.org/2000/svg" width="42" height="41" viewBox="0 0 42 41"><g><g><path fill="#313578" d="M20.152.023c11.64-.25 20.72 8.877 21.043 19.735C41.53 31.06 32.44 40.8 20.634 40.81 9.118 40.82.029 31.532.11 20.361.077 9.501 8.887.266 20.15.023zm-2.467 34.99c4.583.84 8.737-.122 12.389-3.043 8.44-6.752 7.075-19.982-2.58-24.859-7.483-3.78-16.43-.8-20.213 6.31-3.896 7.322-.898 16.682 6.56 20.272.19.091.416.108.585.15.197-1.336.317-2.604.582-3.84.47-2.199 1.02-4.38 1.556-6.563a3.065 3.065 0 0 0-.03-1.677c-.4-1.335-.336-2.657.332-3.91.376-.705.922-1.233 1.698-1.487 1.163-.379 2.33.248 2.518 1.454.1.645.04 1.343-.088 1.99-.177.884-.493 1.741-.742 2.612-.138.483-.302.964-.382 1.458-.257 1.585.794 2.818 2.399 2.743.58-.027 1.183-.227 1.716-.474.889-.413 1.422-1.217 1.86-2.056 1.01-1.929 1.343-4.005 1.122-6.152-.232-2.256-1.48-3.754-3.621-4.504-1.133-.397-2.302-.453-3.481-.358-3.164.256-5.705 2.468-6.347 5.563-.284 1.374-.36 2.797.535 3.971.586.767.524 1.46.26 2.246-.24.71-.46.812-1.111.478-1.241-.635-2.007-1.684-2.37-2.993-.965-3.502-.088-6.587 2.569-8.979 3.52-3.169 7.666-3.736 12.01-2.005 2.982 1.187 4.835 3.5 5.19 6.756.317 2.893-.313 5.626-2.053 8.002-.544.743-1.267 1.4-2.022 1.934-1.89 1.34-5.267 1.98-7.48-.354-.018-.019-.064-.012-.181-.03-.721 2.303-1.001 4.78-2.54 6.988.595.158.972.285 1.36.356z"/></g></g></svg>