<svg xmlns="http://www.w3.org/2000/svg" width="42" height="41" viewBox="0 0 42 41"><g><g><path fill="#313578" d="M.724 19.615C1.161 8.647 10.417-.378 21.995.035 33.17.433 42.283 9.772 41.77 21.315c-.495 11.125-9.825 19.609-20.776 19.489C9.355 40.652.27 31.026.724 19.614zm7.84 10.11c.317.175.63.362.952.524 2.198 1.099 4.531 1.637 6.984 1.667 10.061.12 16.194-7.994 16.257-15.828.005-.62.143-1.054.66-1.453.728-.561 1.413-1.2 1.892-2.17l-2.528.577c1.731-2.058 1.731-2.058 1.682-2.756-.688.26-1.379.509-2.06.782-.715.288-1.269.18-1.93-.313-1.886-1.412-3.982-1.552-6.066-.48-2.072 1.067-3.04 2.85-2.974 5.188.01.319.001.639.001 1.044-4.718-.333-8.443-2.36-11.495-5.722-.592.744-.787 1.348-.825 2.486-.064 1.899.762 3.415 2.023 4.845l-2.078-.497c.16 2.736 1.656 4.38 4.048 5.384l-.099.172-1.89.093c.365 1.129 1.001 1.938 1.864 2.6.881.678 1.907 1.023 3.222 1.27-.65.42-1.075.736-1.535.985-1.889 1.025-3.935 1.417-6.09 1.34-.006.087-.01.175-.015.262z"/></g></g></svg>