<svg xmlns="http://www.w3.org/2000/svg" width="34.797" height="34.797" viewBox="0 0 34.797 34.797">
  <path id="Path_32199" data-name="Path 32199" d="M17.4,0A17.4,17.4,0,1,0,34.8,17.4,17.4,17.4,0,0,0,17.4,0M8.238,26.393c0-.028,0-.056,0-.084V14.032h4.109V26.293c0,.033,0,.066,0,.1Zm4.3-15.534a1.967,1.967,0,0,1-.917,1.154,2.277,2.277,0,0,1-.955.308c-.127.013-.255.018-.382.027A2.55,2.55,0,0,1,9.3,12.17a2.019,2.019,0,0,1-1.281-1.633,2.153,2.153,0,0,1,.1-1.095,2.027,2.027,0,0,1,.991-1.1,2.387,2.387,0,0,1,.909-.255,2.848,2.848,0,0,1,1,.066,2.009,2.009,0,0,1,1.466,1.294,2.226,2.226,0,0,1,.051,1.417M27.166,26.393H23.055c0-.025,0-.051,0-.076q0-3.245,0-6.489a5.687,5.687,0,0,0-.082-1.038,2.872,2.872,0,0,0-.3-.889,1.659,1.659,0,0,0-1.061-.831,2.533,2.533,0,0,0-.913-.062,1.961,1.961,0,0,0-.81.261,2.288,2.288,0,0,0-.571.5,2.414,2.414,0,0,0-.506.92,2.834,2.834,0,0,0-.085.76q0,2.627,0,5.255,0,.847,0,1.7H14.619c0-.343.007-.685.008-1.028.01-2.094.023-4.188.029-6.283,0-1.363,0-2.726-.01-4.089,0-.3-.015-.608-.022-.913,0-.015,0-.03,0-.049h4.1v1.724l.015.006c.015-.021.031-.042.046-.064a4.744,4.744,0,0,1,.945-1.051,3.983,3.983,0,0,1,1.85-.839,5.323,5.323,0,0,1,1.421-.048,4.728,4.728,0,0,1,1.237.278,4.191,4.191,0,0,1,1.477.952,4.461,4.461,0,0,1,1.107,1.85,6.707,6.707,0,0,1,.265,1.219,6.907,6.907,0,0,1,.062.856.779.779,0,0,0,.012.1Z" transform="translate(0.001)" fill="#343579"/>
</svg>
