<svg id="Layer_1" data-name="Layer 1" xmlns="http://www.w3.org/2000/svg" viewBox="0 0 252.07 252.07"><defs><style>.cls-1{fill:#313576;}</style></defs><title>footer-icon-tiktok</title><path class="cls-1" d="M128,2A126,126,0,1,0,254,128,126,126,0,0,0,128,2Zm75.73,93.21v18.92a66,66,0,0,1-40.41-13.73l.13,58.26a48.82,48.82,0,0,1-14.64,34.73A49.84,49.84,0,0,1,121,207.27a50.72,50.72,0,0,1-7.52.55,50,50,0,0,1-30.64-10.35,52.21,52.21,0,0,1-4.71-4.12,49,49,0,0,1-2.21-67.54A50,50,0,0,1,113.46,109a50.73,50.73,0,0,1,7.52.56V136a23.57,23.57,0,1,0,16.2,22.39l0-39V48.18h26.07a41.54,41.54,0,0,0,.77,7.54,40.37,40.37,0,0,0,39.6,32.43s.08,0,.08,0v7Z" transform="translate(-1.96 -1.96)"/></svg>