<?xml version="1.0" encoding="utf-8"?>
<svg viewBox="5.18 0 42 41" width="42px" height="41px" xmlns="http://www.w3.org/2000/svg">
  <defs>
    <style>.cls-1{fill:none;}.cls-2{fill:#313578;}.cls-3{clip-path:url(#clip-path);}.cls-4{fill:url(#linear-gradient);}</style>
  </defs>
  <path d="M 47.18 20.5 C 47.18 31.821 37.778 41 26.18 41 C 14.582 41 5.18 31.821 5.18 20.5 C 5.18 9.179 14.582 0 26.18 0 C 37.778 0 47.18 9.179 47.18 20.5 Z M 12.069 18.32 L 12.734 18.32 C 12.752 18.459 12.752 18.598 12.734 18.738 C 12.704 18.85 12.661 18.959 12.608 19.062 C 12.554 19.147 12.478 19.217 12.386 19.263 C 12.305 19.311 12.212 19.339 12.117 19.34 C 11.855 19.333 11.627 19.166 11.547 18.923 C 11.41 18.498 11.352 18.054 11.372 17.609 C 11.372 16.171 11.642 15.46 12.18 15.46 C 12.342 15.428 12.508 15.486 12.608 15.615 C 12.728 15.766 12.801 15.949 12.813 16.14 L 14.682 15.46 C 14.313 14.41 13.284 13.719 12.148 13.759 C 11.342 13.752 10.585 14.141 10.137 14.795 C 9.605 15.587 9.35 16.525 9.409 17.47 C 9.355 18.399 9.61 19.322 10.137 20.098 C 10.609 20.726 11.368 21.084 12.164 21.057 C 12.954 21.094 13.708 20.732 14.16 20.098 C 14.647 19.186 14.856 18.155 14.761 17.13 L 14.761 16.836 L 12.069 16.836 Z M 17.533 13.914 L 15.601 13.914 L 15.601 20.871 L 17.533 20.871 Z M 20.336 20.871 L 20.336 19.093 C 20.336 18.815 20.415 18.506 20.336 18.135 C 20.257 17.764 20.257 17.346 20.257 16.851 C 20.32 17.068 20.368 17.284 20.463 17.532 C 20.558 17.779 20.637 18.026 20.748 18.305 L 21.714 20.871 L 23.63 20.871 L 23.63 13.914 L 21.777 13.914 L 21.777 15.491 C 21.757 15.851 21.757 16.213 21.777 16.573 C 21.809 16.991 21.936 17.516 21.936 18.119 L 21.73 17.501 L 21.524 16.851 C 21.445 16.666 21.334 16.511 21.334 16.357 L 20.368 13.914 L 18.531 13.914 L 18.531 20.871 Z M 26.386 20.871 L 26.386 19.093 C 26.386 18.815 26.481 18.506 26.386 18.135 C 26.291 17.764 26.291 17.346 26.291 16.851 C 26.353 17.082 26.427 17.309 26.513 17.532 C 26.592 17.779 26.687 18.026 26.782 18.305 L 27.748 20.871 L 29.648 20.871 L 29.648 13.914 L 27.795 13.914 L 27.795 15.475 C 27.795 15.769 27.764 16.14 27.795 16.558 C 27.827 16.975 27.954 17.501 27.954 18.104 L 27.764 17.485 C 27.685 17.238 27.605 17.021 27.542 16.836 C 27.479 16.65 27.352 16.496 27.352 16.341 L 26.402 13.914 L 24.565 13.914 L 24.565 20.871 Z M 34.194 20.871 L 34.194 19.186 L 32.531 19.186 L 32.531 18.119 L 34.019 18.119 L 34.019 16.573 L 32.531 16.573 L 32.531 15.553 L 34.194 15.553 L 34.194 13.914 L 30.599 13.914 L 30.599 20.871 Z M 36.854 20.871 C 37.673 20.933 38.479 20.652 39.071 20.098 C 39.733 19.35 40.074 18.38 40.022 17.393 C 40.06 16.369 39.657 15.377 38.913 14.656 C 38.294 14.137 37.494 13.871 36.68 13.914 L 35.017 13.914 L 35.017 20.871 Z M 37.013 15.63 C 37.329 15.644 37.608 15.837 37.725 16.125 C 37.915 16.538 38.002 16.987 37.979 17.439 C 37.979 18.567 37.646 19.186 36.949 19.186 Z M 42.777 19.17 C 42.575 18.966 42.293 18.854 42.001 18.861 C 41.716 18.86 41.442 18.971 41.241 19.17 C 41.035 19.365 40.921 19.633 40.924 19.913 C 40.924 19.998 40.935 20.081 40.958 20.163 C 41.162 20.959 42.172 21.242 42.777 20.67 C 42.983 20.475 43.097 20.208 43.094 19.928 C 43.097 19.644 42.983 19.371 42.777 19.17 Z M 42.983 13.497 L 41.099 13.497 L 41.099 18.382 L 42.983 18.382 Z M 18.737 30.039 C 19.319 30.071 19.891 29.87 20.32 29.482 C 20.723 29.11 20.943 28.586 20.922 28.044 C 20.946 27.65 20.822 27.259 20.574 26.947 C 20.27 26.659 19.872 26.485 19.449 26.452 C 20.246 26.477 20.878 25.801 20.78 25.03 C 20.795 24.489 20.577 23.968 20.178 23.592 C 19.644 23.195 18.979 23.001 18.309 23.051 L 16.06 23.051 L 16.06 30.039 Z M 17.992 24.566 L 18.182 24.566 C 18.642 24.566 18.863 24.767 18.863 25.169 C 18.873 25.334 18.803 25.495 18.673 25.602 C 18.515 25.719 18.318 25.78 18.119 25.772 L 17.992 25.772 Z M 17.992 27.163 L 18.135 27.163 C 18.352 27.151 18.566 27.217 18.737 27.349 C 18.879 27.468 18.957 27.646 18.942 27.828 C 18.961 28.02 18.885 28.21 18.737 28.338 C 18.57 28.468 18.363 28.533 18.151 28.524 L 17.992 28.524 Z M 25.135 28.354 L 23.678 28.354 L 23.678 23.051 L 21.746 23.051 L 21.746 30.07 L 25.135 30.07 Z M 30.931 26.56 C 30.977 25.636 30.722 24.722 30.203 23.948 C 29.764 23.312 29.024 22.938 28.239 22.958 C 27.575 22.954 26.939 23.216 26.481 23.685 C 25.782 24.464 25.429 25.481 25.499 26.514 C 25.412 27.567 25.754 28.612 26.449 29.42 C 26.91 29.918 27.567 30.2 28.255 30.193 C 29.031 30.2 29.758 29.821 30.187 29.189 C 30.711 28.422 30.972 27.513 30.931 26.591 Z M 28.936 26.576 C 28.95 27.038 28.88 27.499 28.73 27.936 C 28.603 28.245 28.429 28.416 28.207 28.416 C 27.985 28.416 27.811 28.245 27.685 27.921 C 27.54 27.482 27.475 27.021 27.494 26.56 C 27.469 26.098 27.539 25.636 27.7 25.2 C 27.827 24.86 27.78 24.705 28.239 24.705 C 28.698 24.705 28.92 25.339 28.92 26.591 Z M 34.257 27.612 L 34.97 27.612 C 34.987 27.751 34.987 27.89 34.97 28.029 C 34.943 28.137 34.9 28.241 34.843 28.338 C 34.786 28.425 34.71 28.499 34.621 28.555 C 34.532 28.578 34.441 28.578 34.352 28.555 C 34.095 28.55 33.867 28.389 33.782 28.153 C 33.647 27.723 33.587 27.273 33.608 26.823 C 33.608 25.401 33.877 24.69 34.415 24.69 C 34.561 24.69 34.697 24.759 34.78 24.875 C 34.895 25.03 34.966 25.211 34.985 25.401 L 36.854 24.736 C 36.534 23.637 35.491 22.892 34.32 22.927 C 33.525 22.902 32.77 23.269 32.309 23.901 C 31.778 24.694 31.523 25.631 31.58 26.576 C 31.523 27.506 31.78 28.428 32.309 29.204 C 32.781 29.832 33.54 30.19 34.336 30.163 C 35.13 30.2 35.885 29.83 36.332 29.189 C 36.808 28.295 37.017 27.287 36.933 26.282 L 36.933 26.019 L 34.241 26.019 Z" class="cls-2" style=""/>
</svg>