<svg xmlns="http://www.w3.org/2000/svg" width="42" height="41" viewBox="0 0 42 41"><g><g><path fill="#313578" d="M41.396 20.885c-.268 11.566-9.842 20.451-21.418 19.944C8.741 40.336.002 31.184.284 19.94.581 8.163 10.416-.257 21.49.075c11.296.462 20.166 9.611 19.906 20.81zm-10.933 8.841c1.893-.095 2.963-.959 3.502-2.772a8.792 8.792 0 0 0 .334-1.776c.26-3.118.273-6.24-.006-9.357a10.444 10.444 0 0 0-.45-2.159c-.409-1.304-1.369-2.037-2.68-2.314a8.962 8.962 0 0 0-1.299-.155c-5.936-.373-11.875-.339-17.814-.084a11.27 11.27 0 0 0-1.5.17c-1.32.238-2.292.936-2.715 2.25-.185.57-.364 1.167-.395 1.76-.122 2.344-.264 4.692-.24 7.038.016 1.5.236 3.01.501 4.491.276 1.55 1.32 2.44 2.853 2.748.328.066.663.112.997.127 3.318.141 6.638.274 9.865.406 3.081-.125 6.065-.224 9.047-.373z"/></g><g><path fill="#313578" d="M25.197 20.36l-7.015 3.753c-.239-.844-.306-5.754-.118-7.427 2.396 1.083 4.656 2.322 7.133 3.674z"/></g></g></svg>