<?xml version="1.0" encoding="utf-8"?>
<!-- Generator: Adobe Illustrator 24.0.0, SVG Export Plug-In . SVG Version: 6.00 Build 0)  -->
<svg version="1.1" id="Layer_1" xmlns="http://www.w3.org/2000/svg" xmlns:xlink="http://www.w3.org/1999/xlink" x="0px" y="0px"
	 viewBox="0 0 38 24" style="enable-background:new 0 0 38 24;" xml:space="preserve">
<style type="text/css">
	.st0{opacity:0.8;enable-background:new    ;}
	.st1{fill:#FFFFFF;}
	.st2{fill:#003087;}
	.st3{fill:#3086C8;}
	.st4{fill:#012169;}
</style>
<title  id="pi-paypal">PayPal</title>
<path class="st0" d="M35,0H3C1.3,0,0,1.3,0,3v18c0,1.7,1.4,3,3,3h32c1.7,0,3-1.3,3-3V3C38,1.3,36.6,0,35,0z"/>
<path class="st1" d="M35,1c1.1,0,2,0.9,2,2v18c0,1.1-0.9,2-2,2H3c-1.1,0-2-0.9-2-2V3c0-1.1,0.9-2,2-2H35"/>
<path class="st2" d="M23.9,8.3c0.2-1,0-1.7-0.6-2.3c-0.6-0.7-1.7-1-3.1-1h-4.1c-0.3,0-0.5,0.2-0.6,0.5L14,15.6
	c0,0.2,0.1,0.4,0.3,0.4H17l0.4-3.4l1.8-2.2C19.2,10.4,23.9,8.3,23.9,8.3z"/>
<path class="st3" d="M23.9,8.3l-0.2,0.2c-0.5,2.8-2.2,3.8-4.6,3.8H18c-0.3,0-0.5,0.2-0.6,0.5l-0.6,3.9l-0.2,1c0,0.2,0.1,0.4,0.3,0.4
	H19c0.3,0,0.5-0.2,0.5-0.4v-0.1l0.4-2.4v-0.1c0-0.2,0.3-0.4,0.5-0.4h0.3c2.1,0,3.7-0.8,4.1-3.2c0.2-1,0.1-1.8-0.4-2.4
	C24.3,8.6,24.1,8.4,23.9,8.3z"/>
<path class="st4" d="M23.3,8.1C23.2,8,23.1,8,23,8c-0.1,0-0.2,0-0.3-0.1c-0.3-0.1-0.7-0.1-1.1-0.1h-3c-0.1,0-0.2,0-0.2,0.1
	c-0.2,0.1-0.3,0.2-0.3,0.4l-0.7,4.4v0.1c0-0.3,0.3-0.5,0.6-0.5h1.3c2.5,0,4.1-1,4.6-3.8V8.3c-0.1-0.1-0.3-0.2-0.5-0.2
	C23.4,8.1,23.3,8.1,23.3,8.1z"/>
</svg>
