<?xml version="1.0" encoding="utf-8"?>
<svg width="42" height="41" viewBox="0 0 42 41" xmlns="http://www.w3.org/2000/svg">
  <g>
    <g/>
    <g>
      <path fill="#313578" d="M20.768-.015C32.51-.167 41.57 9.311 41.614 20.235c.045 11.19-9.005 20.468-20.363 20.543C9.738 40.855.522 31.78.516 20.438.478 8.988 9.896.126 20.768-.015zm.25 33.728c.84 0 1.68.03 2.516-.006 1.54-.065 3.097-.046 4.614-.279 3.07-.473 5.152-2.216 5.905-5.282.293-1.192.367-2.456.393-3.69.057-2.717.038-5.436.01-8.154-.01-.97-.072-1.95-.22-2.908-.386-2.493-1.703-4.34-4.003-5.43a7.932 7.932 0 0 0-3.313-.757c-3.52-.043-7.043-.06-10.564-.07a15.667 15.667 0 0 0-2.007.13c-3.659.463-6.045 2.79-6.503 6.346a18.963 18.963 0 0 0-.163 2.308c-.017 3.02-.013 6.041.005 9.061.004.702.06 1.41.151 2.106.472 3.613 2.814 6 6.45 6.377 2.23.232 4.482.231 6.725.334l.004-.086z"/>
    </g>
    <g/>
    <g>
      <path fill="#313578" d="M15.412 31.176c-.661-.017-1.333-.166-1.971-.353-1.538-.451-2.538-1.497-2.95-3.03a10.223 10.223 0 0 1-.356-2.482 506.47 506.47 0 0 1-.013-9.468c.004-.703.074-1.41.182-2.105.335-2.151 1.712-3.579 3.839-3.995.558-.108 1.13-.197 1.696-.2 3.422-.019 6.845-.018 10.268-.004.568.003 1.14.075 1.702.167 2.232.363 3.676 1.806 4.011 4.049.124.827.189 1.67.196 2.507.022 2.753.02 5.507-.004 8.26a17.33 17.33 0 0 1-.191 2.407c-.349 2.328-1.73 3.73-4.039 4.136a9.886 9.886 0 0 1-1.599.164c-1.745.021-3.49.008-5.236.008v-.045c-1.845 0-3.691.031-5.535-.016zm-1.239-10.889c-.045 3.781 3.015 6.912 6.769 6.924 3.893.012 7.014-2.997 7.028-6.777.013-3.803-3.055-6.832-6.948-6.86a6.769 6.769 0 0 0-6.849 6.713zm12.442-6.958c.045.854.802 1.546 1.667 1.525.893-.022 1.579-.739 1.546-1.616-.033-.862-.781-1.553-1.653-1.528-.87.025-1.605.788-1.56 1.619z"/>
    </g>
    <g/>
    <g/>
    <g>
      <path fill="#313578" d="M21.105 24.816c-2.476.024-4.497-1.966-4.5-4.432-.003-2.393 2.008-4.416 4.412-4.438a4.46 4.46 0 0 1 4.503 4.437c.02 2.381-2 4.41-4.415 4.433z"/>
    </g>
  </g>
</svg>