<svg xmlns="http://www.w3.org/2000/svg" viewBox="0 0 101.04 101.6"><defs><style>.cls-1{fill:#77c19a;}</style></defs><g id="Layer_2" data-name="Layer 2"><g id="Layer_1-2" data-name="Layer 1"><polygon class="cls-1" points="50.52 0 55.57 2.77 61.08 1.11 65.44 4.87 71.18 4.39 74.67 8.97 80.38 9.7 82.83 14.91 88.27 16.81 89.59 22.41 94.51 25.4 94.64 31.16 98.83 35.1 97.76 40.76 101.04 45.49 98.81 50.8 101.04 56.11 97.76 60.84 98.83 66.5 94.64 70.44 94.51 76.2 89.59 79.18 88.27 84.79 82.83 86.69 80.38 91.89 74.67 92.62 71.18 97.2 65.44 96.73 61.08 100.49 55.57 98.83 50.52 101.6 45.47 98.83 39.96 100.49 35.6 96.73 29.86 97.2 26.37 92.62 20.66 91.89 18.21 86.69 12.77 84.79 11.45 79.18 6.53 76.2 6.4 70.44 2.21 66.5 3.28 60.84 0 56.11 2.23 50.8 0 45.49 3.28 40.76 2.21 35.1 6.4 31.16 6.53 25.4 11.45 22.41 12.77 16.81 18.21 14.91 20.66 9.7 26.37 8.97 29.86 4.39 35.6 4.87 39.96 1.11 45.47 2.77 50.52 0"/></g></g></svg>